<?xml version="1.0" standalone="no"?>
<!DOCTYPE svg PUBLIC "-//W3C//DTD SVG 20010904//EN"
 "http://www.w3.org/TR/2001/REC-SVG-20010904/DTD/svg10.dtd">
<svg version="1.0" xmlns="http://www.w3.org/2000/svg"
 width="300.000000pt" height="300.000000pt" viewBox="0 0 300.000000 300.000000"
 preserveAspectRatio="xMidYMid meet">
<metadata>
Created by potrace 1.10, written by Peter Selinger 2001-2011
</metadata>
<g transform="translate(0.000000,300.000000) scale(0.100000,-0.100000)"
fill="#000000" stroke="none">
<path d="M1288 2901 c-22 -18 -76 -112 -84 -146 -1 -5 -9 -29 -17 -52 -9 -22
-13 -44 -10 -47 4 -3 -29 -6 -73 -6 -91 -1 -150 -12 -172 -34 -37 -37 124
-135 331 -201 65 -21 121 -34 125 -30 4 4 2 10 -4 12 -6 2 -26 15 -44 28 -26
19 -36 22 -42 12 -6 -9 -8 -9 -8 1 0 9 -7 11 -19 7 -11 -3 -28 -1 -38 4 -10 6
-63 31 -117 57 -55 25 -106 53 -114 60 -7 8 -17 14 -22 14 -17 0 1 27 26 39
29 13 148 15 140 2 -7 -11 18 -33 27 -24 4 3 7 12 7 19 0 7 5 25 10 40 10 24
12 25 28 12 9 -9 28 -21 42 -27 27 -13 28 -13 -35 33 -19 14 -18 16 30 112
l50 99 48 3 c65 4 144 -20 250 -76 74 -40 89 -45 97 -32 6 8 9 24 8 35 -3 17
-13 21 -73 25 -66 5 -68 6 -42 18 46 20 134 15 157 -8 19 -19 48 -103 74 -218
l14 -62 -31 -17 c-21 -11 -64 -18 -127 -21 -84 -3 -107 0 -200 28 -58 17 -116
33 -130 34 -14 1 -46 11 -72 21 -51 19 -67 14 -89 -27 -10 -18 -8 -18 23 -5
18 7 44 12 58 10 48 -5 115 -20 144 -32 16 -6 70 -21 120 -32 108 -25 205 -22
265 8 l40 20 11 -50 c12 -58 -3 -91 -16 -35 -4 18 -7 37 -6 41 2 5 -6 6 -17 2
-10 -3 -39 -10 -62 -15 -44 -9 -44 -9 11 -5 l55 5 2 -35 c3 -33 2 -34 -44 -41
-65 -10 -199 1 -327 26 -59 12 -110 19 -112 17 -3 -2 26 -14 63 -25 152 -47
334 -59 418 -26 l50 20 -2 47 -1 46 61 -30 c62 -31 136 -85 169 -124 11 -12
17 -33 15 -55 -3 -44 -32 -60 -107 -58 l-55 1 45 6 c30 5 9 7 -65 7 -180 2
-578 79 -743 145 -93 37 -200 99 -247 143 -61 58 -31 83 130 105 l70 10 -97
-3 c-114 -4 -148 -19 -148 -66 0 -16 5 -32 10 -35 20 -13 9 -41 -27 -65 -20
-14 -41 -29 -47 -35 -6 -5 -33 -27 -59 -49 -27 -21 -71 -67 -100 -102 -28 -35
-54 -64 -57 -64 -7 0 -7 0 -14 83 -5 66 -25 103 -63 118 -28 10 -75 4 -106
-15 -29 -18 -51 -71 -38 -95 6 -11 13 -48 16 -83 9 -127 15 -204 21 -256 6
-51 -10 -140 -27 -152 -4 -3 -10 -17 -13 -30 -2 -14 -9 -49 -15 -79 -6 -30
-13 -57 -16 -60 -3 -2 -33 23 -66 57 -66 67 -93 76 -124 42 -28 -31 -33 -205
-8 -285 15 -47 23 -61 41 -63 24 -4 27 5 11 28 -9 12 -10 12 -5 -3 4 -12 2
-17 -6 -15 -36 12 -63 229 -36 284 9 16 13 35 11 42 -12 32 54 -6 105 -62 44
-48 102 -133 102 -150 0 -5 -3 -6 -7 -3 -3 4 -11 2 -18 -3 -8 -7 -12 -6 -12 3
0 18 -43 87 -55 87 -5 0 -6 6 -2 13 4 6 4 9 -1 5 -4 -4 -14 -3 -22 3 -16 14
-18 33 -1 23 7 -4 8 -3 4 5 -6 9 -11 9 -24 -1 -9 -7 -13 -8 -10 -2 7 11 -37
72 -46 63 -7 -7 40 -185 55 -208 9 -14 10 -13 4 4 -17 53 -44 159 -42 162 2 1
21 -30 42 -70 48 -90 126 -208 172 -258 30 -33 33 -42 27 -74 -5 -31 -9 -35
-28 -29 -18 6 -19 5 -7 -9 7 -9 18 -14 25 -11 6 3 3 -1 -7 -9 -11 -9 -14 -18
-8 -21 13 -8 4 -32 -12 -34 -7 0 -37 -4 -69 -8 -72 -9 -99 -1 -145 39 -33 28
-31 16 4 -20 15 -17 59 -33 89 -33 28 0 30 -13 9 -53 -15 -29 -31 -95 -26
-111 5 -19 -22 -23 -51 -8 -36 17 -164 30 -155 15 4 -6 28 -13 54 -17 27 -3
77 -22 113 -40 51 -26 65 -38 64 -55 -1 -12 1 -19 4 -16 3 2 12 -4 20 -16 8
-11 12 -22 10 -24 -1 -2 -36 12 -77 31 -41 19 -72 36 -69 39 3 3 25 -3 49 -14
24 -11 46 -18 48 -15 6 6 4 7 -95 53 -99 45 -113 49 -94 26 7 -8 16 -12 21 -9
5 3 6 -1 4 -8 -3 -8 20 -38 52 -68 l58 -55 -48 51 c-35 37 -45 53 -34 57 7 3
20 1 28 -5 11 -8 9 -8 -6 -4 -45 13 21 -27 121 -74 56 -26 105 -53 109 -59 4
-7 1 -19 -6 -27 -10 -13 -25 -14 -68 -9 -74 9 -110 25 -161 71 -46 42 -74 89
-64 107 4 7 3 8 -2 4 -5 -5 -16 8 -26 30 -12 27 -17 32 -17 17 -1 -27 42 -112
76 -149 16 -17 47 -43 71 -58 l42 -27 -17 -28 -18 -27 32 27 c26 21 40 25 65
22 18 -3 47 -5 65 -5 30 0 32 -2 28 -30 -5 -42 -56 -80 -132 -98 -32 -8 -34
-9 -11 -10 30 -1 108 29 108 41 0 5 7 8 15 8 8 0 15 -7 15 -16 0 -8 4 -12 10
-9 6 3 10 27 10 53 0 130 55 639 71 656 14 15 49 17 49 3 -1 -24 -28 -123 -45
-161 -15 -35 -61 -433 -51 -443 7 -7 129 -23 177 -23 53 0 53 -1 66 -132 3
-37 9 -68 12 -68 4 0 12 41 19 92 7 51 14 94 16 96 2 1 49 0 105 -4 92 -6 100
-8 87 -23 -12 -13 -15 -61 -18 -236 -3 -186 -5 -220 -18 -222 -8 -1 -37 -5
-65 -8 -40 -6 -46 -9 -31 -17 10 -6 32 -7 49 -4 18 4 59 9 92 13 33 3 68 10
78 15 22 11 32 5 24 -15 -3 -9 -40 -17 -108 -25 -57 -7 -114 -15 -125 -18 -17
-5 -22 0 -27 22 -3 16 1 37 9 50 11 16 14 49 12 130 l-3 109 -12 -65 c-6 -36
-17 -97 -23 -136 l-11 -72 -50 -6 c-27 -4 -49 -10 -49 -15 0 -9 58 -7 83 4 13
5 17 2 17 -13 0 -15 -9 -21 -42 -25 -48 -7 -73 12 -64 48 5 19 -40 265 -51
275 -9 9 9 -264 18 -276 6 -8 -9 -15 -50 -24 -63 -13 -89 -25 -79 -36 9 -9
108 16 108 27 0 5 5 9 10 9 6 0 10 -9 10 -20 0 -13 -9 -22 -28 -26 -15 -3 -46
-12 -69 -19 -41 -13 -42 -13 -51 14 -7 20 -6 32 4 46 11 15 14 72 14 268 0
230 -1 251 -19 273 l-19 25 -7 -56 c-4 -31 -4 -73 0 -93 10 -46 10 -362 0
-417 -6 -33 -3 -44 14 -64 18 -20 26 -23 63 -17 23 4 62 16 87 27 29 12 55 17
75 13 17 -3 45 0 61 7 17 7 46 13 65 14 19 1 64 5 100 10 36 4 77 9 91 10 15
0 38 9 52 18 20 13 32 15 49 7 15 -7 61 -8 127 -3 97 7 105 10 124 35 15 21
19 41 18 92 -1 52 2 68 14 73 24 9 28 -1 29 -71 1 -50 6 -71 24 -95 19 -27 21
-32 7 -37 -8 -3 -26 -3 -39 0 -24 6 -80 -18 -136 -57 -15 -11 -29 -13 -39 -8
-10 6 -19 4 -27 -7 -13 -18 -109 -19 -131 -1 -18 16 -93 15 -123 -1 -13 -7
-51 -12 -84 -12 -34 1 -79 -3 -101 -7 -32 -7 -18 -9 68 -10 134 -1 146 -20 15
-23 l-93 -2 91 -5 c50 -3 97 -11 105 -17 22 -18 110 -16 131 2 13 12 29 15 65
10 26 -4 68 -8 93 -11 24 -2 50 -11 56 -19 15 -22 100 -22 108 -1 3 8 10 15
15 15 6 0 8 -7 5 -15 -5 -12 2 -15 34 -15 49 0 64 18 34 38 -30 20 -30 74 1
95 12 8 19 18 15 22 -4 4 -19 0 -32 -9 -14 -9 -28 -16 -32 -16 -13 0 20 32 48
46 27 14 32 13 63 -6 19 -12 35 -26 35 -31 0 -13 -11 -11 -31 7 -10 9 -23 13
-29 9 -7 -4 -1 -14 15 -27 32 -25 32 -61 0 -86 -31 -25 -33 -37 -2 -21 29 16
37 28 37 61 0 16 9 33 22 42 16 11 18 16 8 17 -17 1 38 28 58 29 18 0 14 -18
-5 -23 -10 -3 -4 -5 12 -6 17 0 37 -7 43 -13 7 -7 18 -13 25 -13 7 0 12 -4 12
-10 0 -5 -3 -9 -7 -7 -5 1 -8 -8 -8 -21 0 -55 -68 -90 -100 -52 -14 17 -60 21
-60 5 0 -6 -10 -15 -22 -20 -19 -7 -16 -9 19 -9 34 -1 41 2 37 14 -4 8 -2 15
4 15 5 0 12 -7 16 -15 9 -23 85 -20 111 5 19 18 26 19 48 9 21 -10 32 -9 61 5
42 20 80 21 96 1 15 -18 97 -18 127 1 13 8 58 15 115 17 l93 3 -97 2 c-139 3
-127 22 14 22 140 0 134 13 -8 16 -58 1 -111 7 -117 13 -18 15 -103 17 -120 3
-21 -18 -77 -17 -113 1 -17 9 -40 14 -50 11 -19 -5 -104 47 -104 64 0 5 13 7
30 4 16 -2 44 1 61 7 27 9 39 8 75 -10 38 -18 47 -19 84 -8 22 7 51 23 64 36
l23 23 24 -34 c41 -60 122 -83 183 -51 33 18 56 19 56 4 0 -17 28 -40 57 -45
15 -3 30 -7 33 -9 4 -2 46 -13 93 -23 l86 -20 25 27 c25 26 26 29 19 124 -7
111 -18 127 -68 101 -53 -27 -55 -20 -55 164 0 130 4 178 15 206 9 20 20 34
25 31 6 -3 10 -4 10 -1 0 3 -26 19 -59 35 -106 54 -172 129 -170 193 l1 33 8
-31 c11 -48 45 -98 95 -138 108 -89 204 -88 272 1 23 30 28 47 29 97 1 137 24
183 82 166 18 -5 30 -5 27 -1 -2 5 -18 11 -34 14 -22 5 -29 12 -28 27 1 11 5
20 9 20 4 0 7 3 7 8 -5 27 3 34 35 30 28 -3 33 -1 27 11 -6 10 0 22 21 39 38
32 63 83 83 167 14 60 14 71 1 83 -35 35 -109 4 -165 -68 -37 -49 -54 -56 -60
-25 -2 11 -6 22 -10 25 -19 15 -39 67 -31 80 6 8 10 20 9 25 0 6 -8 -6 -19
-25 -30 -54 -23 -27 15 67 20 47 33 88 31 91 -3 3 -36 0 -73 -6 -38 -6 -89
-14 -116 -18 -26 -3 -50 -11 -53 -16 -3 -5 -11 -5 -19 2 -15 13 -17 10 -44
-58 -12 -31 -17 -54 -11 -57 6 -3 10 0 10 7 0 19 34 98 43 98 10 0 10 -1 -23
-77 -16 -37 -29 -60 -30 -50 0 9 -5 17 -11 17 -7 0 -9 11 -5 28 3 15 3 22 0
16 -3 -8 -17 -6 -44 7 -21 10 -78 36 -127 58 -48 22 -144 66 -213 99 -113 54
-128 64 -153 106 -16 25 -34 49 -39 53 -14 8 -11 3 68 -117 35 -52 72 -100 83
-107 18 -11 97 -131 90 -137 -56 -43 -97 -63 -113 -54 -9 5 -20 8 -23 5 -11
-11 38 -28 51 -18 9 7 26 3 61 -14 27 -14 55 -25 63 -25 11 0 12 -10 7 -52 -8
-61 -11 -66 -27 -50 -7 7 -8 12 -3 12 6 0 11 12 11 28 1 15 -1 21 -3 15 -3 -7
-9 -13 -14 -13 -6 0 -8 4 -4 9 3 6 -3 15 -14 20 -24 13 -74 14 -66 2 3 -5 1
-12 -5 -16 -6 -3 -13 2 -17 12 -6 14 -9 10 -14 -17 -5 -22 -3 -43 6 -60 8 -14
14 -20 15 -13 0 6 3 18 6 27 4 11 0 16 -12 17 -15 0 -15 2 -4 6 8 3 19 12 23
20 5 7 12 11 18 8 5 -4 9 -1 9 4 0 6 7 11 16 11 14 0 15 -2 3 -17 -13 -16 -12
-17 2 -5 14 10 18 10 24 -5 13 -29 13 -58 1 -65 -18 -12 -44 -9 -60 8 -14 13
-16 13 -16 1 0 -27 12 -50 20 -37 9 15 40 2 33 -15 -8 -23 6 -38 23 -24 8 6
14 17 14 23 0 6 -4 4 -10 -4 -5 -8 -12 -11 -15 -8 -10 10 20 49 30 40 5 -4 5
-1 1 6 -4 7 -1 12 8 12 8 0 14 -6 11 -12 -20 -61 -97 -432 -96 -466 l0 -42
-36 3 c-20 2 -55 0 -77 -5 -29 -7 -41 -6 -47 4 -5 7 -9 9 -9 3 0 -5 -5 -3 -10
5 -5 8 -10 10 -10 4 0 -6 -13 -11 -30 -12 -16 0 -30 4 -30 10 0 5 -7 7 -16 4
-12 -5 -15 -2 -10 10 5 13 2 12 -22 -3 -19 -12 -41 -17 -74 -15 -46 3 -47 4
-51 40 l-4 37 -1 -36 c-2 -34 -5 -37 -37 -41 -48 -6 -47 19 4 80 42 50 201
298 201 314 0 5 4 6 10 3 6 -4 7 1 3 11 -5 13 -3 15 7 9 8 -5 11 -4 7 3 -4 5
2 32 14 59 12 26 31 89 44 138 13 50 24 80 24 69 1 -12 -9 -57 -21 -100 -22
-74 -23 -92 -18 -284 l6 -205 2 215 c2 194 4 222 26 290 l23 75 8 -49 c10 -66
0 -259 -21 -384 -15 -91 -15 -103 -1 -116 14 -14 16 -5 22 88 10 151 26 155
21 6 -4 -113 -4 -117 4 -40 12 123 12 402 0 500 -15 116 -55 308 -75 356 -19
45 -29 117 -21 149 4 17 16 25 42 30 24 4 39 2 44 -5 10 -16 32 13 24 33 -3 9
-21 19 -39 23 l-33 6 17 47 c9 26 27 60 39 76 13 16 28 48 34 70 l11 41 51 -6
c109 -11 176 16 176 73 0 51 -92 136 -203 190 -54 26 -69 38 -75 62 -5 17 -5
31 -1 33 19 8 200 -92 284 -156 91 -69 250 -236 239 -253 -3 -5 6 -9 20 -9 14
0 28 -5 31 -11 5 -7 -5 -8 -29 -4 -29 6 -48 1 -101 -26 -36 -19 -65 -37 -65
-40 0 -3 12 -11 26 -17 14 -7 23 -8 19 -2 -3 5 1 10 10 10 11 0 15 -5 12 -14
-3 -8 -1 -17 6 -20 7 -2 -7 -3 -29 -2 -23 2 -47 7 -54 11 -9 6 -11 4 -5 -5 6
-9 1 -8 -14 3 -25 16 -51 13 -51 -7 0 -6 10 -12 21 -13 41 -3 44 -21 8 -42
-19 -12 -39 -21 -46 -21 -7 0 -11 -6 -10 -12 2 -7 -1 -3 -7 9 -6 13 -22 24
-42 27 -46 9 -53 48 -9 51 21 2 45 17 39 26 -3 5 2 9 10 9 9 0 16 5 16 10 0 6
-5 10 -11 10 -20 0 -109 -42 -109 -52 0 -5 -4 -6 -10 -3 -5 3 -10 1 -10 -5 0
-6 -5 -8 -12 -4 -7 5 -8 3 -3 -6 6 -10 4 -12 -8 -7 -10 3 -17 2 -17 -4 0 -6
-4 -8 -9 -4 -5 3 -13 0 -16 -6 -13 -20 3 -20 43 0 31 16 42 18 50 8 10 -13 12
-48 2 -42 -11 7 -61 -31 -53 -40 5 -5 1 -4 -8 3 -14 10 -18 10 -23 -3 -3 -8
-12 -15 -21 -15 -8 0 -15 -4 -15 -10 0 -14 15 -13 113 15 l88 24 21 -21 c14
-14 23 -18 26 -10 2 7 8 10 13 7 4 -3 23 2 40 11 23 11 44 14 78 9 57 -8 45
10 -14 23 -33 6 -40 12 -42 32 l-3 25 12 -25 c8 -18 12 -21 15 -9 2 8 25 26
51 39 26 12 41 25 35 27 -21 8 -15 20 23 42 34 20 39 49 5 36 -11 -4 -13 -3
-5 4 7 8 18 7 36 -1 55 -26 178 -340 178 -454 l0 -33 -76 -12 c-80 -13 -108
-29 -119 -69 -6 -22 -4 -21 14 7 22 35 23 35 156 58 157 26 172 19 142 -64 -9
-25 -15 -47 -13 -48 2 -2 16 21 32 51 27 52 27 54 11 80 -10 14 -26 27 -37 27
-11 1 -24 3 -30 4 -5 1 -21 3 -34 4 -19 1 -25 8 -30 39 -3 20 -8 51 -11 67
-11 60 -48 162 -92 252 -24 51 -42 97 -39 102 3 5 -7 20 -23 33 -16 14 -40 42
-54 64 -38 61 -185 203 -257 249 -90 57 -178 105 -196 105 -8 0 -14 5 -14 11
0 5 -4 8 -9 5 -12 -8 -44 18 -48 40 -2 11 -5 36 -8 57 -2 21 -8 43 -12 50 -4
7 -8 17 -9 24 -3 20 -44 72 -64 83 -28 15 -90 12 -144 -6 -35 -12 -54 -14 -69
-6 -58 26 -84 33 -150 38 -64 6 -75 4 -99 -15z m-156 -538 c5 -50 3 -71 -8
-89 -11 -15 -13 -34 -8 -59 7 -41 77 -135 99 -135 12 0 15 -15 15 -69 0 -75
-7 -90 -87 -207 l-41 -60 -184 -83 c-100 -46 -188 -85 -195 -88 -6 -2 -14 4
-17 15 -4 10 -16 24 -29 31 -38 21 -65 96 -71 199 -3 51 -10 102 -16 112 -5
10 -10 66 -10 123 l0 105 58 79 c69 91 167 186 258 247 l65 43 82 -49 82 -49
7 -66z m-605 71 c30 -8 31 -20 37 -299 5 -262 -7 -264 -19 -3 -4 87 -11 156
-14 154 -3 -2 -15 0 -26 5 -19 7 -19 8 2 8 12 1 24 5 27 10 3 4 -5 6 -17 4
-21 -4 -22 -1 -19 35 4 36 1 41 -20 45 -15 3 -11 5 14 6 52 2 55 17 3 16 l-43
0 4 -75 c3 -41 11 -165 18 -275 8 -128 9 -202 3 -206 -6 -4 -7 -25 -3 -49 4
-25 3 -39 -3 -36 -16 11 -21 -26 -20 -151 1 -66 -1 -126 -5 -134 -4 -8 0 -5 8
6 16 18 16 18 10 -15 -9 -46 -10 -46 -29 -13 l-16 28 6 -27 c8 -39 -1 -35 -25
12 -22 44 -17 80 6 39 22 -39 16 -12 -7 33 -18 35 -21 53 -16 108 6 74 46 242
56 236 10 -7 10 22 -2 264 -6 124 -14 214 -17 200 l-6 -25 -8 22 c-9 28 1 46
21 39 11 -4 13 -2 10 9 -11 26 39 43 90 29z m629 -71 c2 -37 -1 -52 -7 -42
-10 16 -12 116 -2 105 4 -4 8 -32 9 -63z m109 2 c47 -9 160 -37 168 -42 5 -3
-2 -16 -14 -30 -27 -28 -53 -27 -139 6 -71 27 -80 33 -85 58 -4 22 -4 22 70 8z
m-53 -68 c7 -8 18 -12 23 -11 6 2 45 -7 89 -19 l78 -23 28 28 c24 24 36 28 84
28 65 0 102 -12 110 -37 7 -23 58 -23 81 1 20 20 33 13 16 -8 -14 -17 -17 -92
-7 -153 7 -39 6 -44 -17 -54 -21 -10 -33 -8 -71 11 -47 22 -53 33 -36 60 7 12
12 10 29 -9 23 -27 25 -21 12 27 -11 37 1 82 20 82 7 0 21 -7 31 -17 21 -19
25 -1 3 20 -21 22 -52 10 -64 -26 -13 -35 -39 -67 -55 -67 -6 0 -1 8 11 18 30
23 45 66 33 96 -10 27 -28 42 -38 31 -3 -3 0 -10 7 -15 21 -12 17 -63 -7 -97
-12 -17 -19 -33 -16 -36 4 -3 -12 -6 -34 -5 -22 0 -45 -3 -51 -6 -10 -7 -16 6
-12 27 1 5 -3 6 -9 2 -6 -3 -8 -11 -5 -16 4 -5 4 -9 1 -9 -8 0 -36 70 -36 90
0 12 -12 23 -36 30 -19 7 -38 10 -40 7 -3 -3 4 -8 15 -12 14 -4 25 -20 32 -51
12 -47 52 -89 93 -100 13 -3 39 1 59 9 l35 15 4 -29 c5 -29 -13 -46 -34 -32
-6 3 -8 1 -5 -4 4 -6 0 -14 -9 -17 -9 -4 -13 -2 -8 5 4 7 -7 2 -24 -11 -20
-15 -39 -21 -56 -18 -32 6 -33 -2 -3 -29 29 -27 76 -37 124 -24 21 5 63 10 93
11 113 1 112 1 105 -18 -13 -33 -18 -92 -7 -104 5 -7 13 -36 17 -64 6 -47 3
-57 -46 -152 -28 -56 -55 -102 -59 -102 -3 0 -17 24 -31 52 -13 29 -38 71 -56
94 l-31 42 51 27 c29 15 73 38 100 52 51 26 66 58 22 47 -14 -3 -49 -10 -78
-14 l-52 -8 45 -2 c42 -2 43 -3 15 -10 -49 -12 -98 -11 -125 5 -14 7 -40 21
-59 29 -48 23 -157 102 -176 128 -8 13 -16 43 -16 68 -1 25 -4 59 -8 75 -7 30
-7 30 -19 8 -17 -31 -27 -29 -68 15 -57 62 -66 143 -17 171 24 14 39 14 55 -2z
m-687 -179 c4 -90 8 -178 9 -195 1 -35 21 -44 44 -21 9 9 12 2 12 -32 0 -25 3
-63 5 -85 4 -30 3 -35 -4 -20 -9 19 -10 19 -10 -2 -1 -14 -7 -23 -17 -23 -10
0 -14 6 -10 15 3 8 1 15 -4 15 -11 0 -13 -21 -10 -82 1 -29 -2 -38 -14 -38
-13 0 -16 12 -15 66 1 52 -2 69 -15 76 -9 5 -16 19 -16 31 0 21 1 21 13 -3 14
-28 62 -50 76 -34 10 12 2 94 -10 94 -5 0 -9 -21 -9 -46 0 -27 -4 -43 -10 -39
-5 3 -10 22 -10 42 0 24 -8 46 -22 62 -15 17 -17 21 -4 11 18 -14 18 -11 11
95 -4 61 -10 147 -14 193 -5 60 -4 82 5 82 8 0 14 -48 19 -162z m1274 133 c13
-8 13 -12 0 -27 -10 -13 -5 -12 19 5 29 20 32 21 32 4 0 -33 -44 -98 -69 -101
-38 -6 -48 14 -22 42 l22 23 -25 -4 c-23 -5 -26 -2 -26 24 0 16 3 33 7 36 9
10 45 8 62 -2z m81 -25 c0 -34 -35 -96 -58 -104 -7 -2 -1 8 13 22 14 14 23 31
20 36 -3 6 -1 10 4 10 6 0 11 16 11 35 0 19 2 35 5 35 3 0 5 -15 5 -34z m-74
-146 c-3 -14 -8 -35 -12 -47 -5 -19 -2 -23 18 -23 13 0 33 -6 43 -14 18 -13
17 -13 -10 -9 -17 2 -40 5 -53 6 -20 2 -55 37 -36 37 3 0 2 6 -4 13 -6 7 -15
24 -20 37 -9 24 -8 25 35 25 42 0 44 -1 39 -25z m-546 -104 c0 -47 5 -88 10
-91 6 -4 10 -3 9 2 -4 24 2 42 14 37 11 -4 87 -142 87 -158 0 -12 -93 60 -114
87 -17 23 -22 46 -24 118 -3 60 0 89 7 89 7 0 11 -30 11 -84z m478 46 c-7 -8
-12 -18 -10 -21 1 -3 -7 -5 -18 -5 -20 0 -25 19 -5 19 6 0 16 4 23 9 11 6 11
11 0 24 -12 15 -11 16 5 3 14 -11 15 -16 5 -29z m-116 7 c42 -30 36 -33 -77
-44 -64 -6 -63 -8 -9 32 14 11 48 32 52 32 2 1 17 -8 34 -20z m578 -63 c-11
-5 -25 -4 -36 2 -15 9 -14 11 12 25 26 14 30 14 35 -1 4 -11 0 -20 -11 -26z
m-952 -123 c17 -31 67 -67 145 -103 l67 -32 -29 -33 c-15 -18 -44 -60 -62 -94
-18 -33 -36 -61 -39 -61 -8 0 -92 147 -112 194 -20 49 -22 114 -6 169 l12 41
6 -29 c4 -17 12 -40 18 -52z m-79 -40 c-22 -51 -58 -113 -65 -113 -3 0 -2 5 1
10 3 6 4 10 1 10 -6 0 -111 -140 -137 -184 -11 -20 -16 -36 -10 -36 6 0 18 15
27 33 16 31 171 197 184 197 7 0 40 -66 40 -80 0 -5 -7 -16 -15 -24 -24 -23
-35 -144 -36 -386 -1 -173 -3 -204 -11 -160 -5 30 -8 123 -6 206 3 137 2 153
-14 163 -24 15 -37 13 -18 -2 13 -10 16 -41 15 -187 0 -187 27 -414 49 -407 6
2 10 15 8 28 -9 69 -13 559 -5 589 10 35 10 35 21 -31 7 -36 19 -88 26 -114 8
-26 11 -44 6 -39 -5 5 -18 41 -29 79 -11 39 -20 61 -20 50 -1 -29 26 -126 38
-138 7 -7 11 -81 11 -201 0 -104 2 -187 4 -185 3 2 6 87 7 188 l2 184 30 -59
c16 -32 68 -122 115 -199 91 -146 99 -165 76 -165 -9 0 -12 -4 -9 -10 3 -5 1
-10 -4 -10 -6 0 -11 -10 -11 -22 0 -39 -13 -49 -47 -39 -21 6 -35 5 -42 -2 -9
-9 -16 -8 -30 0 -10 7 -22 9 -26 5 -10 -11 -231 -19 -241 -10 -2 3 -28 -1 -57
-9 -46 -12 -57 -11 -92 3 -22 9 -62 18 -90 19 -48 2 -133 30 -123 40 3 3 21
-2 41 -10 48 -20 106 -19 129 2 11 10 18 30 18 52 0 27 3 32 10 21 7 -11 9 -2
8 33 -1 32 -6 47 -15 47 -7 0 -13 5 -13 11 0 5 3 8 8 6 4 -3 8 15 8 39 1 24 6
50 12 56 12 16 -26 107 -45 108 -15 0 -26 38 -21 76 2 24 7 28 26 26 12 -2 22
2 22 8 0 6 -4 9 -8 6 -4 -2 -13 3 -19 13 -10 15 -6 21 23 35 48 22 78 8 38
-19 -22 -14 -26 -15 -21 -2 4 11 0 13 -14 10 -16 -5 -17 -7 -5 -17 8 -6 16
-20 19 -31 4 -17 5 -17 6 4 1 16 5 21 16 17 8 -3 15 0 15 7 0 8 4 6 10 -3 7
-11 10 -8 10 16 0 49 -19 58 -72 35 -31 -13 -47 -27 -51 -44 -4 -13 -19 -37
-34 -52 -20 -20 -23 -26 -10 -22 15 6 17 3 11 -16 -3 -12 -3 -19 1 -15 4 3 25
-27 46 -68 46 -86 45 -98 -12 -156 -34 -36 -41 -39 -56 -27 -11 10 -14 10 -9
2 11 -19 -12 -15 -64 10 -38 19 -46 28 -57 67 -7 25 -36 93 -65 152 l-52 108
14 47 c7 27 15 71 18 98 2 28 9 54 16 58 7 6 4 7 -6 3 -10 -3 -18 -4 -18 -2 0
18 18 39 47 57 35 22 36 22 50 3 15 -21 13 -50 -4 -47 -6 1 -12 -24 -15 -60
-7 -77 -43 -157 -70 -152 -20 4 -21 3 -12 -19 3 -9 10 -13 15 -10 5 3 9 2 10
-3 2 -25 10 -44 38 -98 33 -61 33 -48 1 37 -12 31 -14 48 -7 51 6 2 7 9 3 16
-7 11 -10 11 -17 0 -6 -10 -9 -10 -9 -2 0 7 20 43 44 80 24 37 50 82 59 99 22
43 92 63 120 35 18 -18 17 -18 -23 -25 -25 -4 -43 -13 -47 -24 -7 -17 -48 -89
-80 -139 -16 -26 -16 -27 0 -14 9 7 38 47 63 87 46 74 51 78 116 89 30 6 38 3
47 -13 10 -19 7 -21 -37 -27 -46 -6 -48 -8 -86 -76 -21 -39 -36 -72 -33 -75 2
-3 23 26 45 64 38 63 44 69 87 79 l46 10 34 -40 c29 -34 35 -48 34 -86 0 -36
-2 -41 -9 -26 -6 14 -9 -5 -8 -58 1 -67 -2 -81 -21 -101 -11 -12 -19 -25 -15
-28 3 -3 24 -59 46 -124 41 -120 66 -179 74 -172 2 2 -1 18 -7 34 -5 16 -27
85 -47 154 -32 105 -36 129 -26 148 6 13 10 41 7 62 -3 20 -1 46 5 56 5 10 13
38 17 60 5 36 3 45 -19 69 -14 15 -26 31 -26 35 0 4 18 13 40 20 22 7 40 17
40 22 0 11 -7 10 -47 -4 -30 -11 -35 -10 -60 14 -16 14 -43 35 -62 45 -18 10
-34 23 -35 28 -1 11 102 65 127 65 16 0 16 -3 2 -37 l-14 -38 22 29 c12 16 44
58 70 94 l48 64 -36 -21 c-19 -12 -50 -30 -67 -40 -32 -18 -236 -111 -245
-111 -2 0 -3 9 -1 20 3 20 34 37 306 160 34 16 60 25 57 20 -4 -6 -4 -10 -1
-10 3 0 27 32 52 70 26 39 48 70 50 70 2 0 -6 -21 -17 -47z m310 -4 l73 -41
-25 -26 -26 -26 -48 34 c-56 40 -72 58 -73 83 0 25 17 21 99 -24z m-1002 -87
c0 -27 2 -53 5 -58 4 -5 9 -43 13 -84 7 -68 6 -74 -9 -60 -19 18 -35 250 -18
250 6 0 10 -22 9 -48z m151 -44 c14 -16 13 -18 -1 -18 -8 0 -18 -10 -20 -22
-4 -20 -4 -20 -6 4 0 15 -6 30 -11 33 -6 3 -17 19 -25 35 -14 26 -13 28 5 23
13 -3 20 0 21 8 0 8 5 1 11 -16 6 -16 17 -38 26 -47z m1452 -45 c107 -49 209
-95 225 -101 35 -15 61 -58 39 -66 -7 -3 -16 0 -20 6 -4 7 -3 8 4 4 7 -4 12
-3 12 2 0 5 -18 9 -40 10 -42 2 -60 -15 -60 -58 0 -16 -4 -20 -16 -16 -22 8
-50 -9 -57 -35 -4 -16 5 -31 36 -60 23 -21 45 -39 50 -39 4 0 7 -4 7 -10 0 -5
-7 -10 -16 -10 -8 0 -12 5 -9 10 3 6 3 10 -2 11 -4 0 -16 2 -25 4 -10 2 -18 2
-18 0 0 -2 44 -33 98 -69 53 -36 123 -86 156 -111 65 -50 93 -53 32 -3 -36 29
-37 32 -20 45 19 14 15 16 -26 14 -20 -1 -18 1 10 12 28 9 36 18 38 41 l4 29
19 -29 c19 -29 26 -59 11 -50 -4 2 -19 -4 -32 -15 -22 -16 -23 -19 -6 -19 11
0 28 7 38 16 15 14 20 15 33 4 32 -26 38 -50 18 -67 -16 -13 -16 -14 0 -9 10
3 17 0 17 -7 0 -8 3 -8 9 2 5 7 6 23 3 35 -4 17 -2 19 9 9 7 -7 18 -13 24 -13
5 0 1 7 -9 15 -10 8 -22 12 -27 10 -4 -3 -17 7 -29 22 l-21 27 23 9 c12 4 30
15 39 23 11 10 19 12 24 5 3 -6 10 -11 15 -11 5 0 0 17 -12 37 -19 31 -20 36
-5 30 22 -8 22 9 0 23 -16 10 -15 11 5 6 13 -2 21 -2 18 1 -3 4 2 16 11 27 18
21 18 21 -3 4 -36 -31 -61 -23 -83 26 -10 25 -38 64 -60 89 -23 24 -41 52 -41
62 0 9 -9 19 -20 22 -16 4 -19 11 -14 27 7 25 33 48 46 40 5 -3 2 -17 -7 -30
-14 -22 -14 -26 1 -49 9 -14 21 -25 28 -25 7 0 6 4 -2 9 -21 13 -10 46 16 49
12 2 22 -1 22 -6 0 -5 27 -42 60 -82 42 -52 67 -95 84 -144 13 -39 30 -85 36
-101 12 -28 8 -39 -54 -163 -36 -72 -71 -132 -76 -132 -9 0 43 115 101 222
l20 37 -28 -2 c-20 -2 -28 -9 -35 -32 -4 -17 -5 -38 -2 -47 5 -17 -52 -139
-68 -146 -5 -2 -8 -12 -8 -22 0 -14 -12 -22 -42 -30 -85 -23 -178 16 -178 74
0 32 20 45 21 14 l2 -23 4 23 c2 12 9 22 14 22 20 0 7 21 -45 72 -75 75 -124
118 -134 118 -4 0 -24 16 -43 36 -24 26 -28 33 -12 25 14 -7 24 -8 28 -1 3 5
-3 10 -15 10 -11 0 -23 7 -27 15 -8 22 4 30 22 15 8 -7 15 -10 15 -6 0 3 0 9
0 13 1 12 -34 12 -47 1 -21 -17 -15 -44 16 -77 l29 -31 -41 0 c-23 0 -52 -3
-64 -6 -20 -6 -22 -4 -14 22 4 16 11 63 15 104 l7 76 -58 18 -58 18 34 29 c33
27 34 29 20 61 -16 39 -101 154 -138 186 -34 31 -29 29 199 -75z m-541 50 c12
-10 28 -36 35 -57 11 -32 11 -41 0 -55 -8 -9 -19 -23 -26 -32 -14 -19 -98 -35
-98 -20 0 6 -11 27 -25 47 l-25 37 21 37 c33 58 79 74 118 43z m-1247 -35 c5
1 7 -2 3 -8 -8 -13 64 -132 76 -125 5 4 6 0 4 -7 -6 -14 46 -71 62 -69 4 1 9
-3 9 -9 3 -23 5 -24 14 -10 5 8 12 11 16 7 4 -4 3 -12 -3 -18 -6 -6 -9 -18 -6
-25 8 -22 -11 -16 -37 11 -13 14 -20 25 -15 25 5 0 -7 17 -27 38 -44 47 -88
111 -122 182 -24 49 -24 52 -5 30 12 -14 26 -24 31 -22z m290 -15 c6 -29 -3
-83 -14 -83 -5 0 -8 18 -7 40 2 21 0 42 -4 46 -4 4 -7 -18 -7 -49 0 -33 -4
-57 -10 -57 -6 0 -10 15 -9 33 1 17 -2 44 -6 60 -7 25 -5 27 23 27 21 0 32 -5
34 -17z m96 -19 c13 -9 21 -22 18 -30 -3 -8 -1 -14 4 -14 6 0 10 -13 10 -30 0
-16 -4 -30 -9 -30 -5 0 -12 -8 -14 -17 -3 -10 -5 4 -6 30 -1 41 -6 54 -32 78
-26 24 -28 29 -12 29 10 0 29 -7 41 -16z m615 -58 l44 -68 23 38 24 37 29 -34
c24 -29 28 -41 24 -79 -2 -25 -21 -81 -42 -125 -30 -62 -40 -97 -44 -155 l-6
-75 -48 95 c-77 155 -118 359 -82 414 10 15 21 25 26 24 4 -2 28 -34 52 -72z
m481 42 c22 -31 20 -128 -4 -221 -21 -84 -98 -267 -111 -267 -5 0 -9 24 -9 54
0 63 -16 113 -59 183 -45 73 -50 115 -20 169 13 24 26 44 29 44 3 0 16 -16 29
-36 l25 -36 18 24 c9 13 28 42 40 66 26 47 40 52 62 20z m870 4 c9 -15 -19
-82 -35 -82 -22 0 -75 58 -63 69 16 16 90 26 98 13z m-204 -109 c0 -8 12 -29
26 -46 32 -39 17 -46 -30 -15 -38 25 -43 37 -24 67 13 22 28 18 28 -6z m-906
-41 c4 -31 22 -74 48 -117 37 -62 42 -79 49 -158 10 -100 9 -102 -68 -218 -61
-94 -66 -97 -92 -56 -12 19 -21 37 -21 41 0 3 -21 36 -46 73 -42 61 -45 70
-40 112 8 60 29 128 57 182 12 24 28 67 35 94 11 44 12 46 13 18 1 -18 5 -33
11 -33 5 0 8 6 6 13 -3 6 -7 31 -10 55 -6 41 -6 42 23 42 27 0 29 -3 35 -48z
m-1018 24 c13 2 24 0 24 -6 0 -6 -4 -8 -10 -5 -5 3 -10 2 -10 -4 0 -5 4 -12 9
-15 5 -3 9 -17 9 -31 0 -21 -3 -23 -19 -14 -24 12 -39 41 -38 71 0 13 3 18 5
11 3 -6 16 -9 30 -7z m1794 -11 c10 -12 8 -16 -11 -24 l-24 -10 23 0 c12 -1
22 4 22 9 0 6 6 10 13 10 23 0 201 -124 216 -151 12 -22 12 -28 -3 -52 -19
-28 -19 -28 -72 20 -13 12 -41 34 -61 49 -21 15 -42 33 -48 39 -5 6 -31 26
-58 44 -45 31 -47 31 -43 9 3 -13 5 -24 7 -25 1 -2 2 -7 3 -12 0 -6 39 -34 86
-63 90 -57 127 -101 100 -118 -28 -18 -59 -10 -93 24 -19 18 -68 59 -110 90
-43 31 -77 60 -77 64 0 5 6 17 14 28 14 19 15 19 38 -3 29 -27 48 -31 25 -5
-15 16 -15 20 -2 40 9 11 15 25 14 29 -5 27 21 32 41 8z m600 -14 c0 -16 -9
-59 -21 -96 -15 -51 -31 -78 -68 -116 -26 -27 -55 -49 -65 -49 -17 0 -17 2 -2
25 15 23 15 24 -1 18 -12 -5 -15 -2 -10 10 3 9 2 17 -4 17 -6 0 -5 8 2 21 15
30 118 133 125 126 3 -3 -3 -14 -13 -25 -10 -10 -31 -34 -48 -53 -29 -33 -28
-33 11 4 22 20 44 34 49 30 4 -5 5 -2 1 5 -4 6 -2 12 4 12 6 0 9 4 5 9 -3 5
-1 12 4 16 5 3 9 15 8 26 -1 17 -18 4 -84 -64 -67 -69 -83 -82 -83 -64 0 42
65 123 121 151 29 14 57 26 61 26 4 0 8 -13 8 -29z m-330 -170 c0 -11 -9 -29
-21 -42 l-21 -24 16 28 c10 17 14 36 10 49 -4 14 -2 18 5 14 6 -4 11 -15 11
-25z m8 -67 c-8 -8 -25 -16 -39 -19 l-24 -4 25 19 c14 11 28 20 33 20 4 0 6 3
6 8 -3 18 4 25 8 8 3 -10 -1 -25 -9 -32z m-2174 -54 c-8 -16 -11 -16 -33 6
l-25 23 25 9 c29 11 46 -9 33 -38z m151 -20 c31 -61 31 -61 -1 -94 -25 -24
-71 -156 -55 -156 9 0 31 61 31 86 0 11 6 28 13 39 12 16 13 12 11 -32 -2 -27
-8 -62 -14 -77 -13 -35 -13 -46 1 -23 10 16 12 16 40 -4 16 -11 27 -25 24 -30
-4 -5 0 -9 7 -9 7 0 33 -19 57 -41 40 -37 42 -42 28 -56 -14 -14 -17 -14 -32
0 -17 17 -45 24 -138 31 -31 3 -62 8 -67 11 -12 7 -14 35 -2 35 4 0 7 24 6 53
0 28 1 55 3 60 2 4 6 42 9 85 2 43 6 88 9 100 3 12 7 31 9 42 12 53 26 48 61
-20z m1625 25 c0 -48 -67 -61 -98 -18 l-20 28 5 -26 c3 -19 0 -28 -13 -33 -22
-9 -28 -2 -20 27 7 31 39 45 99 46 44 1 47 -1 47 -24z m42 -7 c11 -22 12 -73
1 -91 -10 -17 -34 17 -28 41 3 13 2 21 -3 18 -5 -3 -6 8 -4 25 5 35 17 37 34
7z m-1854 -32 c39 -42 40 -45 37 -107 -2 -35 -4 -68 -5 -74 0 -5 -12 10 -25
35 -30 55 -33 45 -4 -12 22 -43 28 -103 11 -120 -13 -13 -68 36 -77 69 -3 15
-11 30 -16 33 -5 4 -12 27 -15 53 -5 37 -2 60 17 107 13 33 27 60 30 60 4 0
25 -20 47 -44z m1912 -31 c7 -8 19 -15 28 -15 25 0 7 -11 -32 -20 -20 -4 -39
-4 -42 1 -3 5 0 9 5 9 6 0 11 9 11 20 0 24 13 26 30 5z m-100 -4 c0 -11 -51
-21 -111 -21 -37 0 -49 4 -49 15 0 12 16 15 80 15 44 0 80 -4 80 -9z m-1575
-49 c-13 -41 66 -101 170 -128 68 -18 81 -18 65 1 -6 8 -10 20 -7 27 3 8 9 2
15 -14 9 -21 7 -39 -6 -80 -14 -45 -21 -53 -44 -56 -15 -2 -48 6 -74 17 -54
24 -58 25 -48 10 5 -8 1 -8 -14 0 -29 15 -102 101 -102 120 0 10 5 8 17 -9 29
-45 76 -89 86 -83 6 4 7 1 2 -7 -5 -8 -4 -11 2 -7 6 4 27 0 47 -8 19 -8 43
-15 53 -14 10 0 0 6 -22 13 -80 25 -135 67 -165 125 -13 25 -7 75 11 98 16 18
21 16 14 -5z m1714 -34 c1 -29 9 -64 17 -76 32 -49 128 -66 208 -37 21 7 44
11 50 9 13 -5 36 36 36 62 0 8 5 12 11 8 6 -3 9 -17 6 -30 -2 -14 0 -21 6 -17
15 9 1 -65 -18 -94 -69 -105 -228 -73 -315 64 -23 36 -26 48 -20 92 7 53 -1
57 -24 13 -36 -73 -29 -101 51 -181 33 -33 41 -46 31 -52 -7 -5 -19 -7 -26 -4
-8 3 -20 5 -28 5 -9 0 -13 4 -10 9 14 22 -17 69 -60 91 -24 13 -44 28 -44 34
0 6 -12 21 -27 34 -23 19 -34 22 -68 16 -77 -13 -83 -24 -12 -21 l68 2 -7
-100 c-3 -55 -7 -101 -8 -102 -1 -1 -37 4 -81 10 l-80 13 -3 52 c-2 32 1 52 7
52 6 0 11 14 11 30 0 17 5 30 13 30 9 0 9 3 -1 9 -11 7 -12 19 -2 65 l12 57
139 -2 c77 -1 143 1 146 5 14 14 20 3 22 -46z m-90 -169 c22 -23 41 -44 41
-48 0 -3 -13 -20 -28 -37 l-27 -31 -35 34 c-22 22 -27 31 -14 24 18 -9 23 -6
33 16 11 25 12 25 34 7 12 -10 8 -3 -10 16 -30 32 -60 37 -34 7 9 -11 8 -17
-4 -27 -13 -11 -16 -11 -13 1 2 8 -3 13 -9 12 -7 -2 -13 4 -13 12 0 8 5 15 12
15 6 0 8 3 5 7 -6 5 10 33 18 33 1 0 21 -19 44 -41z m221 -105 c0 -3 -9 -17
-20 -31 -19 -24 -20 -41 -20 -228 l0 -202 38 -7 c32 -5 40 -2 64 24 15 16 30
30 32 30 2 0 0 -19 -5 -42 -7 -27 -6 -59 1 -94 12 -59 -2 -99 -30 -88 -39 15
-184 54 -201 54 -11 0 -22 7 -26 15 -8 23 2 28 27 15 12 -6 30 -13 41 -16 34
-7 53 -12 100 -24 26 -6 57 -10 70 -8 31 5 -87 44 -183 60 -64 11 -66 13 -52
32 22 32 20 432 -2 464 -9 13 -14 26 -11 29 4 3 41 9 84 13 43 4 81 8 86 9 4
0 7 -2 7 -5z m-1050 -51 c0 -64 -9 -75 -56 -71 l-39 4 45 11 45 11 -47 1 -48
1 0 -56 0 -57 40 6 41 5 -3 -51 c-3 -50 -4 -52 -33 -55 -33 -4 -25 12 10 21
11 3 4 5 -17 6 l-38 1 0 -77 c0 -43 4 -84 9 -92 6 -9 5 -23 -1 -37 -11 -24 -8
-23 -171 -39 -53 -5 -58 -3 -66 17 -5 13 -5 27 0 32 20 21 9 36 -26 36 -35 0
-46 -15 -24 -37 7 -7 -9 -12 -52 -17 -34 -3 -63 -5 -64 -4 -2 2 11 86 26 188
28 177 31 225 15 261 -6 15 4 17 93 18 56 1 101 -1 101 -3 0 -3 -5 -15 -11
-28 -8 -18 -3 -66 20 -205 17 -99 31 -184 31 -187 0 -3 5 -6 10 -6 6 0 10 72
10 197 0 168 -2 199 -16 215 -23 24 -12 27 111 31 55 1 101 4 103 5 1 1 2 -19
2 -45z m378 32 c2 -2 -3 -14 -12 -27 -13 -18 -16 -53 -16 -195 0 -94 4 -183
10 -197 9 -26 9 -26 -46 -26 -38 0 -53 -3 -48 -11 4 -7 23 -9 50 -5 44 6 51 2
36 -21 -4 -7 -24 -9 -54 -6 -38 4 -47 10 -52 29 -3 12 -2 34 4 49 15 39 13
344 -2 386 l-13 34 -5 -55 c-5 -52 -7 -55 -33 -58 -16 -2 -36 0 -45 4 -13 6
-10 9 13 14 17 3 36 2 44 -4 11 -9 13 -8 9 4 -3 10 -21 16 -51 18 l-47 3 0
-61 0 -61 43 6 42 7 0 -54 c-1 -50 -2 -53 -28 -56 -15 -2 -27 1 -27 7 0 6 10
12 23 12 17 1 16 3 -8 8 -16 4 -34 4 -39 0 -14 -13 -3 -159 14 -169 10 -7 -8
-10 -55 -10 -55 -1 -66 -3 -51 -11 10 -6 36 -9 58 -6 33 4 39 3 36 -11 -2 -13
-16 -18 -54 -20 -49 -3 -52 -2 -57 25 -3 15 -1 36 3 47 10 27 6 374 -5 405
l-8 24 183 -7 c101 -3 186 -8 188 -11z m189 -30 c13 -14 23 -39 23 -56 0 -26
-4 -29 -32 -30 -31 -2 -31 -2 -5 -6 36 -6 35 -18 -3 -21 -27 -2 -31 2 -36 28
-9 42 -44 43 -44 1 0 -23 11 -39 50 -72 32 -27 55 -57 66 -85 43 -113 -37
-218 -141 -184 -41 13 -61 39 -70 91 -7 35 -6 36 29 35 26 -1 38 -7 45 -23 17
-36 61 -23 61 18 0 22 -42 72 -83 100 -25 17 -21 11 18 -31 36 -38 42 -47 20
-33 -42 29 -70 61 -73 87 -15 113 -13 142 9 170 28 36 55 47 104 41 27 -2 47
-12 62 -30z m248 3 c46 -36 55 -73 55 -223 0 -185 -22 -232 -112 -242 -35 -4
-50 0 -80 21 -46 31 -50 18 -7 -18 36 -30 84 -34 130 -10 29 15 30 15 20 -5
-15 -27 -72 -42 -115 -30 -43 12 -70 42 -73 82 -2 18 -8 68 -14 112 -12 90 -7
213 12 263 24 67 127 95 184 50z m-603 -290 c3 -7 4 -38 2 -68 -2 -40 2 -66
16 -93 11 -21 20 -39 20 -40 0 -2 -21 -3 -47 -4 -64 -2 -79 11 -54 46 15 21
19 42 18 89 -2 46 2 65 13 72 20 13 27 12 32 -2z m303 -157 c48 18 59 10 23
-15 -42 -30 -116 -17 -138 23 -9 18 -7 18 30 -2 38 -21 41 -21 85 -6z m-539
-71 c15 -6 24 -13 20 -17 -3 -3 3 -12 14 -20 13 -9 20 -26 20 -48 0 -24 7 -39
22 -49 17 -12 18 -16 6 -16 -8 0 -21 7 -28 15 -16 19 -44 19 -60 0 -35 -42
-119 9 -105 65 10 38 24 50 64 51 20 1 28 3 19 6 -19 5 -25 23 -9 23 5 0 22
-5 37 -10z m-406 -60 c0 -5 -5 -10 -12 -10 -9 0 -9 -3 0 -12 18 -18 14 -38 -8
-38 -11 0 -20 4 -20 10 0 5 8 7 18 3 14 -5 14 -3 -2 9 -12 9 -17 21 -13 32 7
17 37 23 37 6z m70 -30 c0 -30 -21 -45 -39 -27 -15 15 -14 54 2 60 23 8 37 -5
37 -33z m170 -2 c0 -23 -4 -29 -16 -24 -9 3 -20 6 -25 6 -14 0 -11 22 7 41 22
24 34 15 34 -23z m598 5 c3 -30 -20 -53 -33 -33 -4 6 -1 10 6 10 7 0 4 6 -6
14 -17 12 -17 16 -6 30 20 23 35 15 39 -21z m154 19 c-8 -2 -8 -8 1 -22 13
-22 -3 -47 -22 -36 -18 11 -13 26 7 20 16 -5 16 -5 0 6 -30 19 -14 59 17 42 5
-3 4 -7 -3 -10z m78 -28 c0 -19 -5 -24 -25 -24 -21 0 -25 5 -25 29 0 16 6 31
13 34 18 7 37 -13 37 -39z m-900 6 c0 -5 -18 -10 -40 -10 -22 0 -40 5 -40 10
0 6 18 10 40 10 22 0 40 -4 40 -10z m770 0 c0 -5 -18 -10 -40 -10 -22 0 -40 5
-40 10 0 6 18 10 40 10 22 0 40 -4 40 -10z"/>
<path d="M777 2333 c-14 -13 -6 -20 46 -43 28 -13 59 -30 68 -37 14 -12 17
-12 22 0 3 8 26 20 51 27 25 7 46 17 46 21 0 13 -12 11 -69 -12 l-51 -22 -35
27 c-19 15 -39 25 -44 21 -5 -3 -13 0 -17 6 -5 8 -3 9 6 4 9 -5 11 -4 6 3 -8
13 -19 15 -29 5z"/>
<path d="M715 2244 c11 -8 36 -19 56 -25 28 -9 35 -16 32 -30 -5 -19 13 -27
19 -9 2 6 20 2 43 -10 25 -13 43 -16 49 -10 5 5 35 7 68 3 32 -3 58 -3 58 1 0
11 -160 85 -165 76 -3 -4 9 -13 25 -19 17 -5 30 -12 30 -14 0 -4 -36 -3 -74 2
-4 1 -6 9 -3 20 4 16 -3 20 -41 25 -24 3 -61 6 -81 6 -34 -1 -35 -1 -16 -16z"/>
<path d="M1020 1917 c0 -16 -47 -40 -61 -31 -6 3 -16 -1 -22 -10 -7 -9 -23
-17 -37 -18 -14 -2 -28 -7 -32 -13 -5 -6 -8 -5 -8 2 0 9 -9 8 -35 -4 -19 -9
-31 -21 -28 -26 4 -6 0 -8 -10 -4 -10 3 -17 2 -17 -3 0 -6 -3 -9 -7 -9 -5 1
-12 0 -18 -1 -5 -1 -28 -2 -50 -2 l-40 0 35 -8 c19 -4 28 -8 19 -9 -9 0 -20
-8 -23 -17 -9 -23 -8 -24 12 -24 21 1 63 30 42 30 -7 0 -11 3 -7 6 3 3 11 3
18 -2 9 -5 8 -10 -3 -18 -18 -13 -28 -87 -13 -93 6 -2 20 4 30 13 11 8 14 13
8 9 -9 -4 -13 2 -13 19 0 14 5 26 11 26 6 0 9 9 6 20 -3 11 -1 18 3 15 5 -3
11 -1 15 5 10 16 25 12 19 -5 -4 -8 -10 -12 -15 -9 -5 3 -9 0 -9 -5 0 -14 17
-14 25 -1 4 6 11 7 17 4 7 -5 8 -2 3 6 -5 8 -3 11 6 8 21 -7 36 13 32 41 -3
23 -2 22 11 -6 17 -38 30 -44 22 -10 -5 19 -5 19 6 -3 21 -43 58 -56 58 -20 0
11 -6 20 -13 20 -7 0 -18 9 -24 19 -11 18 -7 21 54 43 69 24 83 39 63 63 -15
19 -30 19 -30 2z"/>
<path d="M688 1883 c34 -2 90 -2 125 0 34 2 6 3 -63 3 -69 0 -97 -1 -62 -3z"/>
<path d="M1474 2276 c-18 -8 -35 -19 -38 -25 -11 -18 -10 -71 1 -82 7 -7 9 -3
6 14 -6 33 45 92 83 95 38 3 44 12 8 12 -16 -1 -43 -7 -60 -14z"/>
<path d="M1153 2273 c-30 -11 -7 -110 31 -142 24 -20 19 -4 -9 33 -27 35 -30
52 -16 75 8 12 12 12 26 -3 14 -13 15 -19 5 -31 -10 -13 -9 -19 5 -35 10 -11
25 -20 34 -20 12 0 12 3 3 12 -7 7 -12 23 -12 36 0 44 -37 86 -67 75z"/>
<path d="M1234 2265 c3 -10 11 -38 16 -62 6 -24 14 -51 20 -61 5 -9 12 -51 15
-94 l7 -76 61 -48 62 -47 -47 49 c-49 51 -68 88 -68 131 0 25 1 25 25 9 33
-22 32 -11 -5 30 -36 42 -60 112 -41 123 7 5 12 12 11 17 -1 4 7 11 16 14 14
5 12 8 -11 13 -17 3 -39 9 -49 13 -16 6 -18 4 -12 -11z"/>
<path d="M1380 2003 c0 -16 9 -41 20 -58 24 -36 26 -26 4 17 -9 17 -14 39 -11
49 3 11 1 19 -4 19 -5 0 -9 -12 -9 -27z"/>
<path d="M1627 1933 c-15 -2 -38 -10 -52 -17 -22 -12 -18 -13 44 -12 60 1 69
3 68 19 -1 17 -7 18 -60 10z"/>
<path d="M1220 1829 c1 -13 8 -35 16 -49 8 -14 13 -18 10 -9 -2 9 -1 20 4 25
5 5 0 20 -11 33 l-19 23 0 -23z"/>
<path d="M680 1241 c0 -6 -6 -11 -12 -10 -33 4 -40 -1 -35 -28 9 -52 16 -73
27 -90 10 -16 11 -15 6 7 -3 14 -9 43 -13 64 -5 34 -4 38 11 33 17 -7 35 18
22 30 -3 4 -6 1 -6 -6z"/>
<path d="M694 1186 c-3 -8 -4 -27 -1 -43 4 -25 4 -25 6 7 l2 35 14 -25 14 -25
1 26 c0 29 -27 48 -36 25z"/>
<path d="M1354 925 c0 -55 1 -76 3 -47 2 29 2 74 0 100 -2 26 -3 2 -3 -53z"/>
<path d="M1940 1656 c0 -9 97 -64 125 -71 16 -3 28 -5 25 -2 -9 9 -150 77
-150 73z"/>
<path d="M2517 1030 c-3 -8 -8 -33 -11 -55 l-5 -40 15 45 c13 40 14 86 1 50z"/>
<path d="M1360 1433 c-51 -19 -65 -24 -68 -23 -4 1 -41 -44 -38 -47 1 -1 28
11 61 27 33 16 65 30 72 30 6 0 15 5 18 10 7 11 -20 12 -45 3z"/>
<path d="M1533 1327 c1 -23 -8 -75 -20 -115 -12 -40 -18 -70 -14 -67 5 3 16
35 25 73 24 98 28 100 60 42 16 -28 30 -49 32 -47 8 8 -14 55 -49 106 l-34 49
0 -41z"/>
<path d="M2337 900 c27 -44 67 -68 124 -76 59 -8 123 10 162 47 l32 30 -47
-29 c-55 -34 -108 -45 -158 -33 -31 8 -27 9 32 10 37 1 69 5 73 10 3 6 -17 7
-49 4 -79 -8 -125 3 -160 40 l-30 32 21 -35z"/>
<path d="M2028 894 c7 -4 17 -17 22 -29 8 -20 16 -24 52 -23 31 0 37 3 23 8
-11 4 -23 6 -26 4 -3 -2 -5 7 -5 19 1 19 -5 22 -39 24 -22 1 -34 0 -27 -3z"/>
<path d="M2000 801 c0 -36 32 -60 56 -40 8 6 13 19 13 28 -1 13 -2 13 -6 -2
-7 -26 -48 -19 -48 8 0 13 5 19 15 16 8 -2 22 -4 30 -6 9 -1 14 -12 13 -29 -2
-23 2 -26 28 -26 21 0 29 5 28 18 0 10 -3 12 -6 5 -9 -23 -31 -14 -36 15 -6
32 0 43 13 22 9 -13 10 -13 10 0 0 13 1 13 11 0 9 -13 10 -13 6 0 -2 11 -21
16 -65 18 l-62 3 0 -30z"/>
<path d="M1046 518 c-3 -23 -8 -64 -11 -90 -6 -44 -5 -48 15 -48 21 0 22 2 15
88 -4 48 -9 89 -10 90 -2 2 -6 -16 -9 -40z"/>
<path d="M1125 251 c-27 -4 -36 -9 -27 -14 15 -10 180 1 202 14 17 10 -112 10
-175 0z"/>
<path d="M2131 591 c-6 -11 -11 -73 -11 -138 0 -126 11 -163 44 -150 15 6 16
24 14 154 -3 129 -5 148 -20 151 -9 2 -21 -6 -27 -17z"/>
<path d="M1308 119 c-11 -6 -18 -22 -18 -39 0 -50 67 -77 84 -34 3 8 15 14 26
14 28 0 26 34 -2 54 -26 18 -65 20 -90 5z m60 -36 c2 -14 -4 -26 -17 -33 -17
-8 -21 -8 -21 4 0 8 -5 16 -12 18 -7 3 -9 12 -5 22 10 25 51 17 55 -11z"/>
<path d="M1332 2872 c-7 -2 -17 -13 -23 -24 -8 -15 -8 -19 0 -14 7 5 9 1 5 -8
-3 -9 -9 -14 -13 -12 -3 2 -7 -6 -7 -17 -1 -12 -5 -44 -9 -71 -6 -36 -5 -47 3
-42 7 4 12 18 12 30 0 49 39 114 74 123 50 13 77 13 111 -1 21 -9 40 -14 42
-12 14 13 -166 58 -195 48z"/>
<path d="M1420 2816 c-15 -19 -7 -32 12 -20 20 12 57 5 108 -22 80 -42 85 -48
85 -114 0 -32 3 -53 7 -47 4 7 8 36 8 65 0 46 -4 58 -29 82 -16 16 -26 32 -22
36 3 4 0 4 -6 0 -7 -4 -21 -2 -30 4 -16 10 -16 11 2 5 11 -3 16 -2 11 2 -4 4
-20 8 -34 9 -15 0 -43 4 -63 8 -27 6 -38 4 -49 -8z"/>
<path d="M1261 2749 c-11 -28 -21 -57 -21 -63 1 -6 12 16 25 48 14 33 23 61
21 63 -2 2 -13 -20 -25 -48z"/>
<path d="M1725 2760 c-22 -23 -32 -27 -46 -20 -26 14 -36 12 -15 -3 10 -7 21
-29 26 -47 l8 -35 1 32 c1 23 10 38 38 60 20 17 32 33 26 36 -5 3 -23 -7 -38
-23z"/>
<path d="M1771 2708 c-1 -15 3 -37 8 -50 5 -13 12 -36 16 -52 3 -15 8 -26 11
-23 3 2 -4 38 -15 78 -11 42 -20 62 -20 47z"/>
<path d="M1880 2439 c0 -6 30 -24 68 -40 92 -41 133 -62 139 -73 4 -5 -4 -18
-17 -28 -12 -10 -18 -18 -13 -18 6 0 18 9 29 21 14 15 16 24 8 37 -20 32 -214
124 -214 101z"/>
<path d="M2585 2240 c-11 -12 -20 -39 -21 -64 -4 -70 50 -133 129 -151 19 -4
26 -2 22 5 -3 5 -14 10 -24 10 -36 0 -99 57 -113 101 -11 38 -10 46 9 80 24
44 24 47 -2 19z"/>
<path d="M2643 2223 c11 -39 77 -137 86 -128 2 3 -5 15 -16 28 -25 26 -53 80
-53 100 0 8 -6 20 -14 26 -12 11 -13 7 -3 -26z"/>
<path d="M2287 2209 c-22 -11 -36 -23 -34 -26 8 -7 97 28 97 38 0 14 -22 10
-63 -12z"/>
<path d="M1970 2210 c0 -6 25 -22 55 -37 51 -25 70 -43 45 -43 -5 0 -10 -4
-10 -9 0 -6 15 -4 33 3 29 12 42 13 72 6 15 -4 105 23 105 31 0 4 -13 12 -29
17 -22 8 -32 7 -43 -5 -23 -23 -90 -35 -108 -19 -19 16 -104 66 -113 66 -4 0
-7 -5 -7 -10z"/>
<path d="M2615 1960 c-17 -19 -17 -23 -3 -53 l16 -32 -5 41 c-3 26 -1 44 6 49
19 11 41 -15 42 -49 l2 -31 4 28 c3 18 -2 36 -13 48 -22 24 -27 24 -49 -1z"/>
<path d="M2411 1874 c-39 -30 -71 -57 -71 -60 0 -3 4 -3 8 0 5 3 9 -1 9 -9 0
-8 -4 -12 -7 -10 -4 3 -35 -13 -68 -34 -33 -22 -63 -37 -66 -34 -3 4 -6 1 -6
-5 0 -5 -17 -21 -37 -33 -21 -12 -40 -24 -42 -25 -1 -2 0 -7 3 -13 4 -6 26 3
55 24 48 35 67 44 57 26 -10 -15 6 -71 19 -71 8 0 10 10 7 28 -5 24 -4 26 12
13 14 -12 19 -11 37 5 19 17 19 19 2 25 -14 5 -8 12 35 39 47 29 51 34 39 49
-30 34 -27 40 38 86 36 26 65 49 65 51 0 13 -26 -2 -89 -52z m-93 -151 c-9
-10 -14 -26 -13 -36 2 -9 -1 -15 -6 -11 -5 3 -7 10 -3 15 3 6 0 9 -8 7 -23 -5
-16 16 11 33 31 20 40 16 19 -8z"/>
<path d="M2457 1854 c-10 -14 -22 -22 -28 -19 -5 4 -12 -1 -15 -9 -3 -9 -10
-13 -15 -10 -5 3 -9 0 -9 -5 0 -17 9 -14 62 20 53 34 53 35 35 42 -6 2 -20 -6
-30 -19z"/>
<path d="M2260 1845 c0 -8 30 -65 34 -65 9 0 -11 64 -22 68 -6 2 -12 1 -12 -3z"/>
<path d="M2100 1812 c0 -10 137 -28 146 -19 3 2 -19 7 -48 11 -29 4 -63 10
-75 13 -13 3 -23 1 -23 -5z"/>
<path d="M181 1666 c-2 -47 29 -156 61 -216 33 -60 96 -132 110 -124 4 3 6 10
2 15 -3 5 -9 7 -14 4 -29 -18 -120 160 -145 284 -8 38 -14 54 -14 37z"/>
<path d="M256 1510 c9 -33 48 -110 69 -135 10 -12 8 -6 -4 16 -12 20 -32 60
-46 90 -14 30 -22 43 -19 29z"/>
<path d="M201 1393 c12 -21 25 -42 30 -47 17 -18 9 -34 -20 -41 -16 -3 -32
-13 -35 -21 -6 -16 9 -19 19 -4 9 15 76 12 105 -5 42 -24 58 -16 17 8 -40 24
-102 95 -112 128 -4 10 -10 19 -16 19 -5 0 1 -17 12 -37z"/>
<path d="M1966 1312 c-3 -3 -6 -14 -6 -25 0 -19 1 -19 18 -4 10 10 22 14 27
10 4 -5 6 -2 3 6 -4 15 -32 23 -42 13z"/>
<path d="M1654 890 c0 -69 1 -97 3 -62 2 34 2 90 0 125 -2 34 -3 6 -3 -63z"/>
<path d="M2700 934 c7 -18 6 -63 -5 -147 -8 -66 -13 -123 -10 -125 4 -5 26 70
29 105 2 13 6 26 9 30 19 19 -3 163 -25 163 -4 0 -3 -12 2 -26z"/>
<path d="M1929 863 c-21 -25 -40 -73 -29 -73 5 0 12 9 15 20 4 11 10 18 15 15
10 -6 26 42 18 51 -3 2 -11 -4 -19 -13z"/>
<path d="M2657 787 c-9 -15 -13 -27 -7 -27 5 0 10 -17 11 -37 l1 -38 9 45 c5
25 8 54 7 65 -3 17 -5 16 -21 -8z"/>
<path d="M1610 123 c-35 -12 -54 -63 -24 -63 9 0 27 -9 41 -20 14 -11 30 -20
34 -20 15 0 49 39 49 55 0 38 -55 64 -100 48z m78 -35 c2 -11 -3 -18 -12 -18
-10 0 -13 -6 -10 -15 9 -21 -10 -19 -31 5 -10 11 -15 26 -11 35 8 22 60 16 64
-7z"/>
</g>
</svg>
