<?xml version="1.0" standalone="no"?>
<!DOCTYPE svg PUBLIC "-//W3C//DTD SVG 20010904//EN"
 "http://www.w3.org/TR/2001/REC-SVG-20010904/DTD/svg10.dtd">
<svg version="1.0" xmlns="http://www.w3.org/2000/svg"
 width="1024.000000pt" height="1024.000000pt" viewBox="0 0 1024.000000 1024.000000"
 preserveAspectRatio="xMidYMid meet">
<metadata>
Created by potrace 1.16, written by Peter Selinger 2001-2019
</metadata>
<g transform="translate(0.000000,1024.000000) scale(0.100000,-0.100000)"
fill="#000000" stroke="none">
<path d="M0 5120 l0 -5120 2550 0 2550 0 1 53 c1 45 2 48 9 22 8 -26 8 -24 7
15 -2 38 -6 45 -27 51 -15 4 -18 7 -8 8 11 1 15 7 12 15 -9 24 14 28 26 5 9
-17 9 -20 0 -14 -8 5 -11 3 -8 -5 4 -14 42 -21 71 -13 9 2 14 9 11 15 -4 7 -2
8 4 4 18 -11 14 10 -4 29 -9 9 -13 19 -10 23 4 3 11 0 16 -8 9 -13 10 -13 10
0 0 12 2 13 9 1 10 -16 26 -8 41 20 8 15 8 19 -2 17 -9 -2 -14 11 -16 39 -2
34 0 43 12 43 9 0 16 4 16 10 0 5 -6 7 -14 4 -9 -3 -17 3 -21 16 -4 12 -12 19
-19 17 -7 -3 -11 5 -10 22 1 20 -6 29 -34 42 -25 12 -30 18 -18 22 8 3 22 -1
31 -9 8 -9 15 -12 15 -8 0 15 43 -32 67 -74 21 -35 24 -50 19 -85 -11 -70 -49
-123 -106 -149 -47 -21 -50 -25 -50 -60 0 -20 -3 -43 -6 -52 -6 -15 224 -16
2555 -16 l2561 0 0 5120 0 5120 -5120 0 -5120 0 0 -5120z m4846 4721 c215 -44
449 -140 686 -282 167 -101 213 -123 234 -115 8 3 14 2 14 -2 0 -4 10 -8 22
-9 50 -4 158 114 158 173 0 73 -114 143 -257 158 -47 4 -164 -4 -253 -19 l-35
-5 40 15 c108 42 298 56 400 30 142 -37 196 -129 299 -510 51 -190 116 -467
116 -494 0 -13 -21 -27 -67 -49 -103 -46 -145 -57 -173 -42 -28 15 -129 122
-150 159 -8 14 -18 28 -21 31 -3 3 -12 19 -21 35 -11 24 -14 62 -12 162 2 149
9 193 30 193 9 0 13 4 10 9 -4 5 8 23 25 40 16 17 28 35 24 41 -3 5 0 7 8 4 9
-3 24 8 38 28 33 46 42 55 56 51 20 -7 25 17 13 68 l-12 50 -72 -72 c-98 -98
-136 -123 -180 -115 -18 4 -74 30 -122 60 -288 173 -544 291 -744 341 -174 44
-348 57 -388 29 -29 -20 -118 -197 -220 -439 -95 -223 -105 -245 -113 -245
-10 0 -39 48 -39 64 0 33 162 386 252 547 51 93 71 115 114 129 44 15 227 4
340 -19z m-611 -830 l19 -22 -29 7 c-17 4 -36 11 -42 17 -12 9 -17 3 -14 -16
1 -5 -3 -6 -9 -2 -5 3 -12 0 -15 -7 -3 -8 -15 -14 -26 -15 -31 -3 -34 -10 -16
-31 25 -27 21 -35 -8 -16 -33 21 -42 12 -21 -21 19 -28 15 -33 -8 -9 -15 14
-16 14 -16 -5 0 -11 -5 -23 -11 -27 -18 -11 -1 89 33 192 l30 91 56 -56 c31
-31 66 -67 77 -80z m-285 70 l95 -6 -57 -8 c-32 -5 -62 -6 -67 -2 -16 9 -440
-14 -521 -29 -95 -18 -182 -50 -220 -83 -34 -28 -39 -66 -16 -111 19 -37 118
-130 193 -180 33 -23 63 -45 65 -50 5 -13 177 -117 263 -161 149 -74 511 -215
673 -262 137 -39 228 -72 214 -77 -18 -6 -289 68 -441 120 -350 121 -692 308
-910 497 -189 164 -155 257 116 322 127 30 409 44 613 30z m2691 -309 c216
-98 538 -304 748 -477 199 -163 510 -486 637 -660 24 -33 52 -72 64 -87 24
-31 25 -38 5 -38 -26 0 -447 -221 -505 -264 -66 -50 -100 -72 -160 -104 l-45
-23 35 30 c19 17 38 30 42 31 12 0 126 79 134 92 4 7 -1 5 -12 -4 -25 -22
-123 -60 -135 -53 -16 10 -10 19 24 39 78 45 213 92 275 95 6 1 12 9 12 20 0
20 -13 28 -150 85 -94 40 -112 44 -88 20 15 -16 14 -19 -20 -51 -43 -41 -65
-53 -157 -88 -48 -18 -64 -21 -55 -10 7 8 18 15 25 15 21 0 99 38 143 69 32
24 41 37 40 56 l-2 24 -66 -36 c-36 -19 -112 -67 -168 -105 -57 -38 -106 -67
-110 -64 -3 3 -3 8 -1 10 15 13 252 167 286 186 24 13 41 25 39 28 -5 5 -157
-84 -239 -140 -34 -23 -62 -36 -66 -31 -3 6 -49 34 -101 63 -52 29 -139 80
-193 112 -54 32 -104 58 -111 58 -13 0 -52 -37 -45 -44 2 -2 74 -41 159 -86
180 -96 213 -118 204 -132 -4 -6 -2 -8 4 -4 6 3 13 2 16 -3 3 -5 -2 -12 -11
-15 -9 -4 -19 -2 -23 4 -9 14 -43 -25 -38 -42 3 -7 -20 -30 -51 -52 -80 -56
-100 -76 -94 -93 4 -9 1 -13 -8 -11 -8 1 -28 -7 -44 -19 -17 -12 -78 -44 -135
-71 -136 -66 -145 -72 -136 -105 3 -15 13 -27 22 -27 8 0 72 30 141 66 98 51
128 63 135 52 20 -30 38 -68 38 -81 0 -8 -85 -71 -189 -141 -104 -69 -198
-135 -210 -145 -26 -23 -18 -49 18 -57 14 -3 31 -7 38 -9 6 -2 62 10 125 26
191 52 501 129 502 127 12 -32 41 -66 65 -77 18 -8 34 -25 37 -38 7 -26 39
-31 48 -7 3 9 6 32 6 51 l0 36 25 -27 c13 -14 30 -26 37 -26 20 0 110 44 174
85 l58 37 106 -22 c58 -12 114 -29 125 -36 28 -20 32 -18 51 17 15 30 15 32
-7 53 l-23 21 18 -22 c25 -30 19 -29 -83 11 -47 19 -108 38 -136 42 -52 7 -75
19 -75 38 0 7 4 6 9 -2 5 -8 21 -12 37 -10 27 3 29 7 34 53 7 68 33 74 49 11
7 -29 20 -51 38 -64 48 -32 103 -64 103 -59 0 3 -27 22 -59 41 -63 39 -71 50
-71 99 0 30 5 35 108 87 123 63 134 81 66 114 l-42 20 97 56 c53 31 125 75
160 98 36 23 71 42 77 42 27 0 190 -299 283 -519 138 -328 231 -679 266 -1001
4 -36 9 -73 11 -83 5 -28 -48 -41 -331 -82 -125 -18 -181 -33 -222 -57 -23
-14 -33 -16 -33 -7 0 15 -11 6 -14 -13 -4 -22 -26 -58 -37 -58 -6 0 -7 5 -3
12 4 7 3 8 -5 4 -9 -6 -9 -11 -1 -21 6 -7 7 -21 3 -31 -6 -17 -8 -16 -14 6 -7
25 -7 25 -8 -3 -1 -19 -5 -26 -13 -21 -7 4 -8 3 -4 -5 4 -6 12 -9 17 -6 5 4 9
1 9 -4 0 -6 -7 -11 -16 -11 -10 0 -13 -6 -10 -17 3 -10 1 -25 -5 -33 -9 -13
-10 -12 -5 2 3 10 1 20 -4 23 -6 4 -10 -1 -10 -10 0 -11 -7 -15 -22 -13 -13 2
-23 8 -23 13 0 6 -4 16 -8 22 -4 7 -3 21 2 31 7 14 6 24 -4 38 -13 17 -14 18
-15 2 0 -10 -6 -18 -14 -18 -24 0 -30 -21 -7 -27 21 -5 30 -33 11 -33 -5 0
-10 -7 -10 -15 0 -9 17 -19 45 -26 25 -6 45 -16 45 -23 -1 -46 -34 -80 -53
-54 -5 8 -7 1 -4 -22 3 -19 3 -30 1 -23 -3 7 -13 9 -22 6 -14 -5 -15 -3 -4 8
19 21 15 41 -8 34 -12 -4 -20 -2 -20 5 0 8 10 10 25 8 28 -6 36 18 10 28 -8 4
-15 12 -15 19 0 9 -8 11 -22 7 -21 -5 -22 -4 -8 13 14 17 13 18 -7 13 -16 -4
-23 -2 -23 8 0 14 11 18 44 14 11 -1 17 3 14 12 -5 14 -51 12 -56 -3 -2 -5 -8
-6 -14 -3 -6 4 -8 -1 -3 -15 8 -27 -11 -28 -25 -1 -6 11 -15 18 -21 15 -5 -4
-7 -11 -4 -16 4 -5 1 -9 -4 -9 -6 0 -11 4 -11 9 0 5 -3 16 -6 24 -4 12 0 14
18 11 l23 -5 -22 10 c-13 6 -23 15 -23 21 0 14 13 13 28 -2 10 -10 15 -10 22
2 7 11 5 16 -5 18 -8 2 -15 11 -15 20 0 10 -9 23 -20 30 -26 16 -27 37 -2 23
10 -5 24 -6 32 -1 10 6 7 9 -11 12 -17 2 -24 10 -25 26 -1 18 4 22 29 22 30 0
31 0 11 16 -20 17 -20 17 5 42 24 24 25 24 39 6 11 -14 13 -15 9 -3 -3 9 0 23
6 30 10 11 9 11 -5 0 -12 -9 -18 -10 -18 -2 0 6 4 11 8 11 13 0 82 67 82 79 0
6 -6 14 -13 17 -8 3 -14 12 -14 21 0 13 2 13 14 -3 11 -15 13 -16 13 -2 0 9
-5 20 -10 23 -12 7 -4 25 11 25 5 0 9 -7 9 -15 0 -8 4 -15 10 -15 6 0 5 10 -2
25 l-11 25 -24 -22 c-13 -12 -23 -16 -23 -10 0 13 40 37 56 34 6 -1 17 5 24
13 7 8 9 15 4 15 -4 0 24 20 63 45 48 31 77 43 89 39 18 -6 18 -6 0 8 -15 12
-16 17 -6 23 9 5 11 4 6 -3 -4 -7 -5 -12 -2 -12 3 0 10 9 16 20 9 18 5 28 -28
68 -21 26 -47 61 -57 77 -16 27 -14 26 11 -5 16 -19 43 -51 61 -70 l31 -35 -1
27 c-1 14 -5 24 -9 21 -5 -2 -8 0 -8 5 0 15 38 44 50 37 6 -3 9 -2 8 3 -4 14
104 99 184 146 37 21 69 44 72 51 5 13 -28 55 -43 55 -5 0 -20 -9 -35 -21 -23
-18 -25 -23 -14 -37 11 -13 11 -14 -1 -8 -7 5 -16 5 -20 0 -15 -21 -238 -154
-258 -154 -16 0 -46 51 -36 60 17 15 242 178 323 235 47 32 87 60 89 62 3 2
-4 12 -15 23 -19 19 -20 18 -109 -48 -50 -37 -146 -112 -213 -167 -183 -149
-382 -286 -357 -245 4 6 -4 49 -16 96 l-24 84 -42 0 c-32 0 -43 -4 -43 -15 0
-15 47 -109 73 -147 25 -37 22 -37 -338 26 -110 19 -214 38 -230 41 -27 6 -31
3 -41 -24 l-12 -30 52 -6 c28 -3 105 -10 171 -15 251 -20 370 -33 379 -41 6
-5 2 -18 -10 -31 -15 -18 -15 -20 -1 -9 9 7 17 11 17 8 0 -12 -140 -108 -150
-102 -6 4 -9 1 -8 -6 2 -7 -23 -26 -54 -42 -32 -17 -58 -36 -58 -44 0 -7 -12
-13 -27 -14 -16 0 -22 -3 -15 -6 20 -8 14 -23 -15 -35 -27 -12 -90 -58 -79
-58 5 0 65 38 106 67 44 33 66 35 30 4 -19 -17 -38 -30 -42 -31 -4 0 -23 -11
-43 -24 -20 -14 -49 -27 -65 -31 -17 -4 -27 -11 -24 -17 4 -6 -2 -5 -15 1 -11
7 -21 8 -21 4 0 -4 -4 -1 -10 7 -5 8 -13 11 -17 6 -4 -5 -3 -10 2 -13 6 -2 17
-8 25 -13 13 -8 12 -11 -5 -24 -20 -14 -20 -15 9 -45 35 -36 46 -38 53 -11 3
11 11 20 18 20 7 0 18 7 25 15 7 9 53 40 102 71 71 44 92 52 107 44 14 -7 22
-6 31 5 7 8 17 15 23 15 5 0 2 -9 -8 -20 -10 -12 -24 -19 -29 -17 -7 3 -11
-13 -11 -43 0 -27 3 -46 7 -43 5 2 6 9 3 14 -9 13 9 11 22 -2 9 -9 11 -7 9 6
-2 10 -11 21 -21 25 -11 4 -14 9 -8 13 12 8 60 -43 57 -60 -1 -7 -2 -26 -3
-42 -1 -19 -7 -31 -18 -34 -14 -4 -12 -5 5 -6 37 -2 25 -18 -19 -24 -50 -7
-57 -13 -41 -37 16 -26 15 -30 -5 -24 -15 5 -16 4 -3 -5 12 -9 13 -12 1 -20
-9 -6 -10 -11 -2 -15 6 -4 11 -2 11 4 0 6 8 10 18 8 11 -2 18 4 20 20 4 25 20
29 29 7 7 -20 -26 -57 -45 -50 -7 3 -22 0 -32 -5 -13 -7 -21 -7 -25 0 -3 5
-16 10 -28 10 -18 0 -19 -2 -7 -10 13 -9 13 -10 0 -11 -10 0 -8 -3 5 -9 18 -8
17 -9 -7 -9 -22 -1 -26 3 -23 19 6 29 14 40 32 40 26 0 8 10 -25 15 -39 4 -52
12 -52 31 0 8 -6 14 -12 14 -18 -1 -49 -26 -41 -33 3 -4 -4 -7 -17 -7 -23 0
-23 1 -5 14 11 8 16 19 12 30 -9 22 -28 20 -34 -4 -3 -11 -12 -20 -20 -20 -13
0 -13 4 2 26 16 25 16 27 0 37 -9 5 -24 17 -33 28 -8 10 -20 15 -26 12 -6 -3
-8 -3 -5 1 4 4 -4 19 -18 34 l-25 27 24 5 c16 4 19 8 10 14 -17 10 -72 -15
-73 -34 0 -11 -2 -11 -6 -2 -3 7 0 18 6 25 5 7 7 23 4 36 -3 13 -1 26 4 30 6
3 7 14 2 26 -7 18 -8 18 -9 -5 -1 -14 -4 -19 -7 -12 -2 6 -10 12 -16 12 -8 0
-7 -4 1 -12 14 -14 16 -68 2 -68 -5 0 -10 9 -10 20 0 24 -13 26 -30 5 -11 -13
-10 -18 6 -30 17 -13 17 -14 2 -15 -9 0 -18 3 -20 8 -9 21 -57 52 -71 46 -24
-9 -21 -27 3 -19 11 4 20 2 20 -4 0 -15 -47 -14 -56 1 -4 6 3 20 17 31 l24 19
-50 -7 c-60 -9 -66 -12 -59 -29 3 -8 -10 -19 -33 -29 l-38 -17 38 6 c21 3 37
1 37 -5 0 -5 8 -12 18 -14 9 -2 -1 -3 -23 -1 l-40 3 35 -13 c19 -8 45 -12 56
-9 12 2 25 0 28 -5 4 -6 -3 -8 -16 -5 -19 4 -21 3 -8 -7 16 -13 18 -13 -55 13
-44 15 -75 37 -75 53 0 8 7 14 15 14 8 0 15 5 15 10 0 6 -9 10 -20 10 -11 0
-20 4 -20 9 0 5 -8 7 -18 4 -10 -2 -34 0 -53 5 l-34 9 33 7 c35 8 42 22 15 29
-11 3 -7 5 10 6 15 0 27 5 27 11 0 16 -61 -1 -86 -25 l-25 -23 30 -13 c16 -7
27 -17 25 -21 -3 -4 1 -5 9 -2 8 3 18 1 22 -5 17 -28 -51 -5 -88 30 -11 10
-23 16 -27 14 -13 -8 -150 57 -143 68 3 6 1 7 -4 4 -6 -4 -60 16 -119 45 -113
54 -161 93 -142 116 8 9 7 11 -4 7 -11 -5 -44 36 -119 147 -57 84 -124 178
-149 208 -39 48 -45 61 -44 101 1 55 43 210 58 214 80 22 219 45 237 40 12 -4
32 -18 45 -32 l22 -24 28 37 c47 61 32 124 -37 160 -15 7 -64 16 -109 20 l-82
7 6 36 c3 20 21 74 41 121 21 52 35 102 35 129 0 41 4 48 74 115 49 47 84 92
105 135 36 69 71 195 71 249 0 30 2 34 23 29 117 -29 477 -34 559 -8 102 32
183 127 195 230 5 46 2 60 -30 124 -99 200 -422 444 -784 593 -48 20 -92 40
-97 44 -8 8 -55 200 -56 227 0 11 202 -67 351 -135z m-343 -109 c6 -43 21
-125 33 -182 l22 -105 -23 -18 c-12 -10 -26 -18 -31 -18 -9 0 -23 46 -41 135
-7 33 -13 61 -14 63 -1 2 -27 -4 -58 -13 -78 -23 -92 -14 -20 13 32 12 70 31
84 43 l25 21 -50 -6 c-27 -3 -63 -8 -80 -11 -16 -2 -6 3 23 13 48 15 67 39 28
36 -14 -2 -15 1 -4 13 11 14 10 15 -12 9 -60 -18 -61 -14 -6 13 32 17 68 39
80 50 11 10 24 20 27 20 3 1 10 -34 17 -76z m327 -156 c283 -142 537 -364 585
-511 29 -91 -18 -202 -105 -246 -47 -23 -61 -25 -224 -27 -96 -2 -170 1 -165
6 5 5 72 15 150 24 135 14 210 36 229 67 4 6 -12 1 -35 -11 -79 -42 -318 -48
-505 -14 -122 22 -246 52 -339 83 -95 31 -106 37 -85 45 31 12 10 20 -22 9
-18 -7 -34 -3 -69 15 -49 26 -78 51 -47 40 11 -4 16 -3 12 3 -3 6 -18 10 -33
10 -39 0 -215 108 -181 111 8 1 1 5 -16 8 -28 7 -26 8 30 21 79 19 304 15 397
-6 38 -9 71 -14 74 -12 5 6 -127 38 -156 38 -11 0 -18 5 -15 10 3 6 17 10 30
10 13 0 27 -4 30 -10 3 -5 14 -10 23 -9 12 0 11 3 -5 9 -13 5 -23 14 -23 20 0
6 4 9 9 5 13 -7 135 23 186 47 22 10 32 16 21 13 -39 -11 -163 -37 -201 -41
-33 -4 -28 0 30 20 38 13 76 21 84 18 8 -3 12 -1 8 5 -8 13 18 24 38 17 8 -4
15 -1 15 5 0 7 11 9 28 6 20 -4 22 -3 8 3 -12 5 -16 11 -9 15 6 4 9 16 6 27
-3 11 -1 20 5 20 5 0 0 55 -14 133 -13 72 -24 137 -24 144 0 12 103 -33 275
-120z m-3257 69 c82 -56 274 -167 409 -234 l81 -41 4 -173 c4 -137 8 -183 23
-219 l19 -47 -29 -33 c-66 -78 -82 -184 -49 -312 23 -91 54 -143 155 -267 100
-122 135 -150 192 -150 l37 0 0 -152 c0 -84 3 -183 6 -221 6 -65 5 -69 -34
-135 -22 -37 -55 -96 -73 -132 -19 -36 -39 -65 -46 -65 -6 0 -15 -4 -20 -9 -5
-5 -3 -6 5 -2 6 4 12 5 12 2 0 -11 -127 -181 -136 -182 -19 -2 -44 -17 -44
-27 0 -5 10 -2 22 9 32 28 20 3 -46 -96 -88 -133 -100 -146 -178 -178 -72 -30
-72 -30 -96 -11 -14 10 -34 18 -46 18 -19 -1 -19 -2 -2 -6 23 -6 65 -43 49
-43 -6 0 -19 -3 -29 -7 -12 -4 -15 -3 -10 5 4 7 1 12 -8 12 -9 0 -16 -6 -16
-12 0 -9 -3 -8 -10 2 -8 12 -11 12 -28 -3 -13 -12 -21 -14 -29 -6 -6 6 -25 8
-49 3 l-39 -8 30 -7 30 -7 -30 -2 -30 -2 30 -8 c27 -7 27 -8 5 -8 -27 0 -84
15 -62 17 7 1 10 5 7 11 -3 5 -19 7 -35 3 -19 -3 -30 -1 -30 6 0 6 7 11 16 11
12 0 15 6 11 21 -4 14 -2 19 8 15 7 -2 16 -2 20 2 4 4 17 7 28 8 12 0 48 1 80
2 38 1 56 6 52 13 -4 6 -14 8 -23 4 -8 -3 -19 0 -24 7 -6 10 -8 10 -8 1 0 -9
-17 -13 -52 -13 -38 0 -49 3 -38 10 13 8 12 10 -3 10 -10 0 -20 -6 -23 -14 -3
-9 -23 -13 -62 -13 -51 0 -53 0 -17 6 22 3 35 9 29 13 -6 4 -26 3 -45 -2 -27
-8 -36 -7 -45 5 -16 21 -27 19 -55 -11 -23 -25 -23 -26 -5 -39 10 -8 24 -11
30 -7 7 4 2 8 -11 10 -22 3 -22 3 -2 23 22 22 33 25 26 6 -4 -10 2 -13 21 -10
26 4 26 4 8 -11 -11 -9 -14 -16 -8 -16 25 0 12 -38 -18 -50 -34 -14 -60 -8
-60 15 0 8 -4 15 -10 15 -5 0 -10 -7 -10 -15 0 -8 -4 -15 -10 -15 -5 0 -8 -15
-5 -35 3 -25 0 -35 -9 -35 -10 0 -13 14 -11 53 1 28 0 45 -2 36 -2 -10 -13
-15 -26 -14 -12 1 -14 0 -4 -2 10 -3 17 -14 17 -29 0 -16 -6 -24 -17 -25 -16
-1 -16 -2 -1 -6 19 -5 31 -30 22 -45 -4 -6 -16 2 -29 17 -17 23 -27 27 -49 21
-34 -8 -25 -25 10 -18 20 3 25 2 19 -7 -4 -7 -13 -10 -20 -7 -8 3 -15 0 -17
-6 -3 -8 -9 -8 -24 0 -10 6 -14 12 -9 12 6 0 3 5 -5 10 -13 8 -12 10 3 10 9 0
17 4 17 9 0 5 12 12 28 17 20 5 23 8 10 11 -21 5 -24 19 -6 25 7 3 5 7 -6 11
-9 4 -15 3 -12 -1 11 -18 -12 -34 -35 -26 l-24 8 25 8 c19 6 16 6 -11 3 -21
-3 -48 0 -62 6 -17 8 -34 8 -53 2 -27 -9 -27 -10 -6 -15 12 -4 22 -2 22 3 0 5
7 9 16 9 8 0 12 -4 9 -10 -3 -5 3 -10 14 -10 12 0 21 -4 21 -10 0 -5 -8 -10
-19 -10 -10 0 -21 -9 -24 -20 -3 -13 0 -20 9 -20 8 0 14 5 14 10 0 6 8 10 18
10 10 0 23 5 29 11 6 6 17 9 25 6 8 -2 -2 -12 -24 -22 -21 -11 -38 -25 -38
-32 0 -7 -4 -13 -10 -13 -5 0 -10 5 -10 10 0 6 -7 10 -15 10 -20 0 -19 -20 3
-36 11 -9 13 -13 4 -14 -16 0 -43 25 -35 33 3 4 7 21 9 39 4 29 3 30 -10 13
-12 -17 -15 -18 -30 -3 -22 23 -20 30 7 23 17 -5 19 -4 7 4 -18 13 -21 13 -39
2 -12 -8 -12 -11 0 -23 8 -8 22 -19 32 -24 16 -9 16 -11 -3 -32 -12 -12 -26
-19 -32 -16 -7 5 -5 12 7 21 19 13 17 15 -20 17 -17 1 -20 8 -21 46 -1 27 0
33 3 15 2 -16 9 -34 14 -39 9 -10 6 22 -12 97 -13 57 -20 61 -17 10 1 -21 1
-58 -1 -83 l-3 -45 -8 40 c-4 22 -6 56 -4 75 4 33 4 33 -6 10 -6 -14 -10 -60
-9 -102 3 -75 -9 -115 -25 -89 -4 6 -2 11 3 11 7 0 11 36 11 99 0 112 2 116
90 139 25 7 70 23 100 36 30 13 68 29 83 35 22 9 27 16 23 34 -3 12 -3 16 0
10 4 -10 9 -9 21 2 8 8 28 15 44 15 l29 0 -24 38 c-14 20 -27 55 -30 77 -5 36
-4 35 10 -12 9 -29 32 -71 51 -93 20 -23 33 -44 29 -47 -3 -3 -8 2 -12 11 -3
9 -11 13 -16 10 -6 -4 -5 -10 3 -15 8 -4 14 -14 14 -20 0 -7 6 -13 13 -15 7
-1 8 0 2 3 -5 2 -8 9 -4 14 3 5 17 3 32 -4 15 -8 35 -12 46 -9 11 2 16 0 12
-7 -5 -7 -1 -9 8 -5 11 4 16 0 16 -10 0 -9 8 -16 18 -16 14 0 15 -2 2 -10 -13
-9 -13 -10 0 -10 9 0 21 5 27 11 8 8 17 7 34 -2 22 -11 23 -11 10 5 -12 15
-12 17 0 14 8 -2 20 -10 27 -18 12 -13 13 -13 8 2 -5 17 30 52 44 43 4 -2 5 8
1 23 -5 25 -6 25 -9 4 -2 -12 -7 -20 -12 -17 -5 3 -11 1 -15 -5 -17 -28 -26
-6 -19 50 5 50 4 60 -8 60 -9 0 -22 7 -29 17 -13 15 -12 15 8 2 17 -10 25 -11
34 -2 8 8 7 13 -2 18 -8 5 -10 4 -5 -3 18 -30 -40 1 -76 40 -24 25 -26 32 -15
49 16 26 44 34 65 17 15 -12 16 -11 4 4 -12 14 -9 18 20 31 42 19 205 82 238
92 49 15 100 46 100 60 0 8 -4 15 -10 15 -5 0 -10 -4 -10 -10 0 -5 -4 -10 -9
-10 -4 0 -6 11 -4 24 3 14 -5 39 -21 65 -14 22 -26 47 -26 56 0 10 -9 15 -27
15 -39 0 -54 -12 -56 -46 -2 -27 -8 -31 -97 -61 -106 -36 -34 -32 -869 -53
-194 -5 -356 -12 -359 -15 -7 -7 657 1 913 10 140 6 140 6 110 -13 -44 -28
-161 -72 -201 -78 -63 -8 -150 -41 -297 -113 l-143 -70 -128 -3 c-113 -3 -129
-5 -142 -22 -34 -47 -19 -51 126 -30 34 5 34 4 -20 -29 -58 -36 -59 -37 -49
-122 3 -28 6 -31 32 -27 20 3 28 1 23 -7 -5 -7 -1 -9 8 -5 11 4 16 0 16 -15 0
-12 5 -21 10 -21 6 0 10 -13 10 -30 0 -16 3 -30 8 -30 4 0 5 24 3 52 -3 39 -6
48 -12 33 -6 -16 -8 -17 -8 -3 -1 20 21 37 27 20 2 -7 8 -10 13 -6 5 3 9 -5
10 -18 1 -23 1 -23 9 2 13 39 12 -69 -1 -128 -7 -35 -17 -53 -32 -60 l-22 -11
22 0 c39 -2 32 -16 -8 -17 -29 -1 -39 2 -39 14 0 12 -3 13 -11 5 -9 -9 -8 -16
5 -28 9 -9 16 -21 16 -26 0 -5 7 -9 15 -9 8 0 15 -5 15 -11 0 -8 -12 -10 -35
-6 -25 4 -35 2 -35 -7 0 -20 12 -27 27 -15 10 9 13 7 13 -10 0 -11 -6 -21 -14
-21 -8 0 -16 -7 -20 -15 -3 -8 -9 -14 -13 -13 -4 2 -8 -1 -8 -7 0 -5 4 -9 9
-7 5 2 6 -4 3 -12 -4 -9 -2 -18 3 -21 6 -4 10 1 10 9 0 9 5 17 10 17 20 3 25
4 38 12 7 5 12 4 12 -2 0 -6 -4 -11 -8 -11 -4 0 -13 -13 -19 -30 -6 -16 -7
-30 -2 -30 5 0 9 -7 9 -15 0 -8 5 -15 10 -15 6 0 10 -11 10 -24 0 -29 25 -52
42 -39 17 12 68 34 68 29 0 -5 -90 -56 -99 -56 -4 0 -12 21 -19 46 -8 28 -26
60 -47 81 -19 19 -35 39 -35 44 0 4 -7 6 -15 3 -8 -4 -17 1 -21 9 -3 9 -19 19
-35 22 -28 6 -51 25 -30 25 6 0 8 7 4 16 -4 12 -2 15 8 12 8 -3 14 -13 14 -24
0 -10 8 -20 18 -22 9 -2 17 2 17 8 0 7 6 8 18 2 9 -5 22 -7 29 -5 12 5 6 34
-10 44 -5 4 -5 15 2 27 13 25 14 62 2 62 -5 0 -7 -9 -4 -20 3 -11 0 -20 -6
-20 -6 0 -11 -7 -11 -15 0 -8 -5 -15 -11 -15 -6 0 -8 -9 -3 -22 6 -22 6 -22
-19 -5 -15 9 -33 17 -42 17 -9 0 -14 4 -10 9 3 5 0 13 -6 17 -8 5 -10 -3 -7
-25 2 -17 1 -31 -4 -31 -4 0 -8 18 -8 41 0 34 -7 49 -44 90 -60 66 -74 116
-81 284 -4 77 -11 156 -15 175 -5 19 -12 105 -15 190 -7 148 -8 156 -33 182
-29 31 -31 50 -52 515 -11 240 -11 243 11 285 93 183 396 559 625 777 167 159
387 325 589 446 44 27 82 52 83 57 5 13 8 11 90 -46z m-1585 -272 c25 -9 28
-33 7 -54 -17 -17 -33 -20 -92 -19 -87 1 -123 10 -123 29 0 8 16 20 35 27 34
11 34 12 7 12 -40 1 -87 -26 -87 -49 0 -37 56 -60 143 -60 114 0 179 35 161
87 -5 13 1 11 22 -9 27 -27 28 -31 37 -173 8 -132 8 -148 -8 -165 -21 -23 -61
-36 -130 -43 -41 -5 -45 -4 -23 4 l28 11 -3 128 -2 128 -75 4 c-93 5 -190 45
-190 77 0 45 108 84 212 76 36 -3 73 -8 81 -11z m2162 -61 c10 -15 12 -22 4
-15 -15 13 -33 17 -25 4 3 -5 9 -35 15 -68 5 -32 12 -68 16 -79 6 -16 3 -16
-14 5 -12 14 -19 18 -17 10 2 -8 7 -62 10 -120 l5 -105 -21 50 c-18 42 -22 77
-26 209 -4 155 -4 158 15 147 11 -5 28 -23 38 -38z m-2471 -70 c8 -26 24 -204
36 -398 6 -93 17 -271 25 -395 8 -124 21 -364 30 -535 8 -170 22 -404 30 -520
18 -245 18 -275 5 -275 -5 0 -10 21 -10 48 0 55 -27 332 -36 366 -3 13 -1 32
4 43 6 11 6 46 1 88 -7 68 -21 288 -55 870 -29 523 -40 685 -46 690 -3 4 -23
-1 -43 -10 -53 -21 -54 -12 -3 18 52 31 55 32 62 10z m450 -778 c9 -231 21
-525 26 -653 8 -180 7 -237 -3 -252 -16 -27 -29 -21 -33 15 -2 17 -17 266 -33
555 -17 289 -35 557 -39 595 -5 39 -8 96 -7 127 l2 58 -67 -6 c-45 -5 -69 -3
-74 5 -5 7 3 11 21 11 42 0 102 19 142 45 l36 22 6 -51 c4 -28 14 -240 23
-471z m-344 45 c42 -684 60 -967 64 -1027 3 -35 1 -65 -4 -68 -6 -4 -10 4 -10
17 0 34 -58 1011 -69 1168 -6 74 -12 185 -15 245 -8 218 13 7 34 -335z m2363
373 c-56 -56 -73 -100 -73 -196 0 -125 41 -215 157 -340 50 -55 89 -114 81
-123 -8 -7 -189 220 -213 267 -30 58 -55 157 -55 219 0 90 36 159 105 201 50
31 49 22 -2 -28z m731 -344 c14 -17 41 -63 59 -102 19 -40 54 -97 79 -128 l47
-57 -22 -18 c-48 -41 -94 -57 -83 -29 3 8 0 16 -7 16 -7 1 -22 3 -33 4 -30 3
-44 14 -44 32 0 8 -11 24 -25 35 -14 11 -25 28 -25 38 0 12 -8 20 -22 22 -15
2 -24 11 -26 26 -2 13 -8 20 -14 16 -7 -5 -9 0 -6 14 4 14 2 22 -6 22 -8 0
-11 11 -8 31 3 22 1 30 -7 25 -16 -10 -9 24 12 54 9 13 17 21 17 16 0 -5 7 -3
15 4 8 6 19 9 25 5 5 -3 10 1 10 10 0 22 30 5 64 -36z m3467 11 c94 -18 161
-40 156 -53 -5 -15 -39 -11 -141 14 -92 23 -107 21 -195 -30 -36 -21 -129 -70
-206 -109 -77 -39 -150 -80 -162 -91 -12 -12 -25 -17 -28 -12 -9 15 48 52 200
131 215 113 308 160 316 160 3 0 31 -5 60 -10z m-2409 -44 c19 -23 23 -40 37
-166 8 -75 8 -70 3 48 -5 129 0 151 26 120 12 -16 19 -49 37 -170 7 -51 19
-119 26 -150 13 -55 12 -58 -11 -83 -34 -36 -50 -32 -52 13 l-1 37 -4 -35 -4
-35 -67 3 c-50 2 -63 0 -52 -8 13 -9 12 -10 -5 -7 -11 2 -19 8 -18 15 2 6 -4
9 -12 6 -8 -4 -15 -1 -15 7 0 7 -3 9 -7 6 -3 -4 -12 -2 -19 4 -7 5 -45 23 -85
38 -40 16 -75 33 -77 39 -2 6 15 31 37 54 l41 43 28 -31 c15 -17 37 -44 48
-60 l21 -29 -4 55 c-2 30 -14 99 -25 154 -25 113 -22 123 43 148 51 19 87 14
111 -16z m-1404 -203 c26 -62 39 -137 51 -298 12 -154 22 -187 70 -239 32 -34
181 -159 271 -228 19 -15 58 -48 85 -73 44 -40 34 -35 -85 41 -140 90 -276
191 -322 240 -36 40 -46 83 -58 268 -9 140 -29 276 -47 322 -3 7 -1 14 5 14 5
0 19 -21 30 -47z m1593 -60 c45 -24 159 -24 217 0 23 9 47 17 53 17 16 0 0
-67 -36 -150 -18 -41 -36 -90 -39 -107 -9 -41 -22 -41 -77 -2 -82 58 -98 80
-120 154 -12 38 -25 74 -30 80 -9 9 -12 25 -6 25 2 0 19 -8 38 -17z m-634 -50
c-12 -21 -27 -44 -34 -51 -7 -7 -13 -16 -13 -19 0 -7 53 38 58 50 9 18 17 4
17 -30 0 -35 -4 -39 -55 -68 -30 -17 -68 -39 -85 -49 -16 -10 -22 -12 -12 -3
9 8 17 18 17 22 0 12 -40 -27 -40 -39 -1 -12 -64 -60 -125 -93 -47 -26 -78
-29 -99 -8 -8 8 -20 15 -27 15 -8 0 -10 12 -5 41 4 26 3 38 -4 34 -6 -4 -10 5
-10 19 0 16 -6 26 -14 26 -8 0 -18 4 -21 10 -19 30 145 102 281 123 55 9 120
25 145 36 24 11 45 20 46 20 1 1 -8 -16 -20 -36z m-992 -125 c4 -17 6 -166 4
-330 l-4 -300 -20 44 c-18 39 -20 68 -23 341 -3 294 -3 298 17 288 11 -6 23
-25 26 -43z m1665 -32 c77 -71 126 -93 250 -111 113 -17 131 -24 154 -57 26
-36 19 -39 -34 -11 -33 17 -69 26 -110 29 -116 5 -180 35 -275 129 -11 11 -31
28 -44 37 -13 9 -20 21 -16 27 10 17 13 15 75 -43z m-134 -291 c18 -13 18 -14
-5 -8 -15 4 -22 2 -18 -4 4 -6 -14 -13 -45 -16 -28 -4 -55 -12 -58 -18 -9 -14
-295 -18 -325 -5 -11 5 -31 8 -45 7 -38 -4 -20 6 48 28 63 19 133 17 242 -8
36 -8 132 13 138 30 6 14 46 11 68 -6z m154 5 l28 0 -26 -67 c-19 -52 -26 -94
-30 -178 -4 -112 -13 -148 -35 -143 -7 1 -23 -5 -37 -14 -14 -9 -43 -19 -65
-23 -68 -12 -304 -31 -299 -24 2 4 -12 10 -32 14 -25 4 -43 1 -61 -10 -13 -9
-28 -13 -31 -9 -4 4 -1 9 6 11 19 7 14 19 -12 31 -15 6 -26 7 -28 2 -2 -6 -18
-5 -41 2 -24 7 -36 16 -33 25 3 7 -1 13 -8 13 -8 0 -16 3 -18 8 -6 15 -68 43
-80 36 -7 -4 -8 -3 -4 4 4 6 -5 19 -19 28 -14 9 -25 20 -25 24 0 11 104 49
193 71 91 22 111 24 101 7 -5 -8 -2 -9 12 -4 51 20 138 28 242 22 67 -4 112
-2 112 3 0 5 6 16 13 23 6 7 19 22 27 33 15 19 15 19 -12 2 -33 -21 -36 -12
-7 19 11 12 21 31 22 43 1 13 8 21 20 21 11 0 15 -4 11 -12 -5 -8 -2 -9 10 -5
14 6 16 3 12 -16 -6 -20 -5 -20 4 -2 5 11 14 33 20 49 7 19 15 26 26 22 9 -3
28 -6 44 -6z m-895 -49 c47 -7 52 -9 23 -10 -21 0 -38 -6 -38 -12 0 -5 12 -31
26 -56 14 -26 26 -59 26 -75 1 -20 5 -27 15 -24 7 3 13 0 13 -5 0 -6 -9 -9
-20 -6 -17 4 -20 2 -14 -16 10 -32 -82 59 -103 102 -11 22 -25 35 -35 35 -10
-1 -18 4 -18 12 0 8 3 14 8 14 4 0 12 11 18 25 9 18 9 25 0 29 -6 3 0 3 14 0
14 -2 52 -8 85 -13z m-885 -120 c-28 -231 198 -447 662 -631 122 -48 119 -42
46 -126 -90 -101 -155 -202 -283 -434 -88 -160 -75 -153 -131 -68 -234 360
-381 667 -399 834 -10 91 10 235 49 350 33 98 55 149 61 142 1 -1 -1 -32 -5
-67z m-2182 -200 c4 -171 2 -189 -14 -195 -9 -3 -19 -5 -21 -2 -3 3 -21 233
-23 297 0 4 -18 7 -41 7 -32 1 -139 28 -139 35 0 2 34 1 75 -1 82 -5 118 9
130 49 5 16 10 18 18 10 8 -8 13 -76 15 -200z m-484 -41 c26 -221 27 -250 15
-250 -8 0 -10 -38 -6 -136 3 -74 8 -138 11 -141 3 -3 2 -11 -4 -17 -5 -7 -9
-57 -8 -111 0 -55 0 -138 -1 -183 -1 -52 3 -89 10 -98 7 -9 8 -14 1 -14 -6 0
-12 4 -14 9 -4 12 -58 2 -58 -11 0 -6 11 -7 25 -4 21 5 25 3 25 -16 0 -14 -3
-18 -8 -11 -5 8 -12 7 -27 -4 -15 -12 -16 -14 -3 -10 9 3 21 0 27 -7 15 -18
10 -106 -6 -106 -7 0 -10 7 -7 15 4 9 0 15 -9 15 -8 0 -17 -5 -19 -12 -3 -7
-10 -8 -17 -4 -10 7 -11 10 -1 16 9 6 7 13 -9 26 -11 10 -21 23 -21 29 0 5 5
3 10 -5 8 -13 10 -13 10 2 0 9 -5 20 -11 24 -15 9 -30 -16 -23 -41 5 -19 5
-19 -10 -1 -13 16 -13 20 0 33 18 18 18 27 -1 20 -21 -9 -69 51 -55 68 8 10 8
15 -1 21 -8 4 -9 3 -5 -4 4 -7 4 -12 -1 -12 -4 0 -18 22 -31 48 -25 51 -25 89
-1 262 39 287 83 493 147 695 l47 150 7 -55 c4 -30 14 -111 22 -180z m4573
-75 c55 -82 144 -215 197 -295 142 -214 223 -331 259 -370 17 -19 31 -39 31
-45 1 -5 7 -19 13 -30 10 -16 14 -17 21 -7 8 11 10 11 15 -2 5 -12 0 -16 -23
-16 -17 0 -29 3 -28 8 3 13 -14 42 -25 42 -7 0 -7 -4 1 -12 16 -16 15 -25 -3
-25 -8 0 -12 4 -9 8 2 4 -1 11 -7 15 -6 3 -15 1 -19 -5 -4 -8 -17 -10 -33 -6
-32 8 -27 25 6 19 l22 -5 -23 10 c-23 11 -52 5 -52 -10 0 -5 -5 -9 -12 -9 -9
0 -9 3 0 12 18 18 14 30 -8 23 -12 -4 -20 -2 -20 5 0 6 -4 9 -9 5 -6 -3 -9 4
-8 15 1 10 8 22 16 25 20 8 29 -4 11 -15 -8 -5 -11 -12 -7 -17 9 -9 28 17 23
32 -2 6 -11 9 -20 9 -11 -1 -15 4 -12 15 3 9 1 23 -5 31 -8 12 -9 10 -4 -7 5
-17 2 -23 -10 -23 -9 0 -16 7 -14 18 3 32 -1 34 -21 11 -23 -29 -25 -19 -5 24
l16 32 -22 -25 c-17 -19 -21 -20 -15 -6 4 12 0 23 -11 32 -14 11 -14 14 -3 12
8 -2 18 -7 21 -11 3 -5 9 -2 12 7 4 9 3 15 -1 14 -4 -1 -20 1 -37 5 -31 8 -66
56 -79 110 -4 15 -11 25 -16 22 -5 -3 -4 -19 2 -38 11 -35 46 -193 53 -242 2
-16 11 -70 20 -118 9 -49 14 -94 12 -100 -2 -7 -7 11 -11 38 -11 77 -92 427
-125 545 -16 58 -25 107 -20 108 5 2 9 11 10 20 0 11 4 9 11 -8 6 -14 10 -29
9 -33 -1 -5 3 -6 9 -2 7 4 -1 28 -22 65 -17 32 -36 56 -42 53 -5 -3 -6 -1 -2
6 4 6 -3 24 -15 39 -15 19 -20 21 -14 7 4 -11 10 -30 12 -42 3 -13 11 -23 18
-23 18 0 29 -50 14 -64 -8 -8 -9 -5 -4 13 5 18 4 22 -5 16 -9 -6 -11 -4 -5 5
4 7 2 16 -5 20 -7 5 -28 46 -46 92 -17 45 -42 108 -54 138 -28 71 -22 64 97
-115z m-2060 98 c-7 -16 -21 -44 -31 -63 -32 -59 -236 -362 -280 -415 -22 -27
-46 -57 -53 -65 -6 -8 -33 -42 -60 -75 -177 -219 -274 -355 -357 -500 -47 -83
-62 -96 -25 -22 60 118 203 331 344 512 30 39 96 127 147 197 89 122 128 177
261 371 33 48 62 87 63 87 2 0 -2 -12 -9 -27z m1969 -193 c27 -175 10 -268
-91 -471 -64 -130 -200 -380 -231 -427 l-22 -33 -19 33 c-11 18 -43 78 -71
133 -91 182 -151 279 -290 468 -24 33 -21 41 18 52 24 7 24 7 5 -9 -11 -8 -15
-16 -8 -16 6 0 19 10 27 22 9 12 16 19 16 14 0 -5 6 -4 13 2 6 6 62 38 122 72
61 35 146 87 190 117 47 32 103 61 138 70 69 20 111 56 140 123 l20 45 13 -45
c7 -25 21 -92 30 -150z m-5329 -40 c164 -74 367 -296 566 -620 53 -86 192
-368 185 -375 -6 -7 -271 441 -323 547 -16 31 -42 72 -59 90 -17 19 -43 52
-59 74 -30 43 -135 158 -122 134 5 -8 27 -37 50 -65 65 -79 95 -122 89 -128
-3 -3 23 -50 59 -104 35 -54 79 -125 97 -158 19 -33 73 -123 120 -200 97 -157
133 -222 128 -236 -2 -5 -50 66 -107 158 -58 92 -146 231 -196 308 -50 77
-120 189 -155 249 -47 79 -90 134 -154 200 -49 50 -80 78 -67 61 64 -85 188
-282 188 -298 0 -22 6 -30 -117 138 -57 77 -123 164 -148 193 -48 56 -42 63
25 32z m1369 -187 c12 -85 42 -151 85 -185 44 -35 47 -44 19 -53 -35 -11 -103
15 -139 53 -39 42 -111 149 -111 166 0 6 9 -3 20 -21 22 -37 43 -58 90 -92 29
-21 32 -22 26 -5 -12 29 -28 154 -22 170 11 28 25 13 32 -33z m1649 -3 c-10
-11 -22 -20 -27 -20 -4 0 -59 -24 -121 -54 -152 -73 -281 -133 -347 -163 -141
-64 -180 -84 -175 -93 3 -5 0 -7 -8 -5 -7 3 -54 -13 -103 -36 -49 -22 -118
-54 -154 -70 -36 -17 -83 -39 -105 -49 -62 -30 -217 -100 -221 -100 -2 0 -4 7
-4 16 0 8 17 22 38 31 20 8 60 26 87 38 181 85 646 299 780 360 88 40 207 95
265 123 58 27 107 48 109 46 2 -2 -4 -13 -14 -24z m2835 -70 c110 -55 202
-100 205 -100 2 0 111 -50 242 -111 262 -122 852 -387 951 -426 71 -29 72 -34
36 -108 -13 -27 -22 -41 -18 -30 9 32 15 82 7 65 -3 -8 -12 -21 -20 -28 -11
-11 -13 -11 -13 0 0 8 -3 9 -8 3 -4 -5 -20 -11 -36 -13 -26 -3 -28 -1 -17 12
14 17 1 22 -15 6 -5 -5 -20 -7 -33 -3 l-25 6 24 9 c12 5 20 11 17 14 -3 3 -17
-1 -31 -8 -26 -14 -26 -14 51 -46 45 -18 97 -50 123 -73 51 -46 41 -43 -43 14
-32 21 -79 48 -103 59 l-45 19 -40 -20 c-21 -11 -39 -17 -39 -12 0 5 6 12 13
14 9 4 9 6 0 6 -7 1 -20 -14 -28 -31 -10 -22 -14 -25 -11 -10 2 12 0 22 -4 22
-5 0 -11 -10 -13 -22 -3 -13 -3 -3 -1 22 2 32 0 39 -6 25 -5 -11 -9 -30 -9
-42 -1 -13 -5 -23 -11 -23 -5 0 -9 10 -7 23 1 14 -3 21 -11 19 -8 -1 -11 2 -7
8 3 6 11 8 16 5 5 -4 9 2 9 12 0 10 3 29 6 43 5 17 3 22 -4 15 -5 -5 -12 -19
-15 -30 -3 -15 -5 -13 -6 8 0 16 -5 26 -10 23 -5 -3 -7 -16 -4 -29 4 -17 3
-19 -6 -7 -8 12 -13 12 -23 2 -20 -20 -31 -14 -24 13 5 18 2 25 -9 25 -8 0
-16 8 -16 18 -1 15 -2 15 -6 -1 -4 -14 -11 -17 -30 -12 -16 4 -22 2 -18 -5 14
-22 -26 -8 -41 15 -9 14 -20 23 -24 20 -5 -3 -11 -1 -15 5 -12 19 -25 10 -25
-17 0 -24 -2 -25 -12 -10 -15 18 -65 40 -78 32 -4 -2 -15 4 -25 15 -10 11 -24
20 -31 20 -7 0 -15 6 -17 13 -3 6 -6 1 -6 -12 -1 -17 -5 -22 -17 -17 -9 3 -23
6 -32 7 -11 0 -12 2 -4 6 6 2 10 9 6 14 -8 14 -34 11 -34 -4 0 -9 -10 -12 -30
-9 -16 2 -30 9 -30 14 0 20 -43 48 -74 48 -32 0 -27 14 9 23 12 3 8 5 -10 4
-27 -2 -30 -5 -27 -30 3 -25 1 -27 -17 -18 -28 16 -36 32 -20 43 12 7 11 9 -1
7 -43 -4 -58 16 -17 24 12 2 7 4 -11 3 -28 -2 -31 1 -26 19 4 17 3 17 -6 5 -9
-12 -12 -13 -17 -1 -5 11 -7 11 -14 0 -7 -11 -10 -9 -15 9 -4 12 -10 22 -15
22 -5 0 -7 11 -3 24 3 13 1 27 -5 31 -6 3 -9 11 -6 16 4 5 1 9 -4 9 -6 0 -11
-5 -11 -11 0 -5 -4 -8 -9 -5 -5 4 -8 -2 -6 -11 2 -10 4 -22 4 -26 1 -5 6 -5
11 -2 6 3 10 2 10 -4 0 -19 43 -82 49 -73 4 6 16 0 28 -14 20 -22 20 -28 0
-25 -4 1 -3 -7 3 -18 13 -25 13 -44 0 -36 -5 3 -10 15 -10 26 0 10 -4 19 -8
19 -5 0 -24 24 -42 53 -92 142 -344 457 -366 457 -7 0 -30 21 -50 48 -52 65
-57 72 -51 72 3 0 96 -45 207 -100z m2607 -110 c84 -51 82 -104 -12 -320 -37
-85 -94 -220 -127 -300 -57 -138 -80 -184 -63 -130 4 14 55 137 112 274 110
265 135 338 127 361 -10 26 -58 49 -99 47 -37 -2 -201 -28 -555 -87 -139 -23
-235 -46 -272 -66 -15 -8 -18 -5 -19 18 l0 28 -17 -24 c-17 -24 -97 -195 -133
-285 -14 -34 -17 -52 -9 -60 17 -17 11 -27 -9 -17 -25 14 -38 -15 -16 -39 20
-22 19 -36 -1 -19 -13 10 -17 10 -25 -2 -13 -20 -11 -35 6 -53 20 -20 20 -21
-15 -23 -25 -2 -30 1 -30 21 0 12 3 26 6 29 4 4 15 28 24 54 156 424 163 439
222 469 15 8 111 27 215 43 467 73 588 93 592 97 11 11 70 2 98 -16z m-6861
-195 c54 -32 100 -85 114 -132 6 -21 14 -80 17 -130 l6 -93 -36 0 c-39 0 -42
-5 -50 -80 -2 -19 -5 6 -5 56 -3 158 -30 252 -91 317 -29 32 -91 67 -118 67
-24 0 -4 17 27 23 41 8 92 -3 136 -28z m3742 -52 l60 -58 9 -80 c12 -117 9
-369 -6 -450 -38 -211 -103 -433 -182 -616 -56 -132 -188 -395 -231 -464 l-20
-30 5 27 c2 15 1 26 -2 23 -4 -2 -12 59 -19 135 -21 253 -58 366 -195 593 -41
67 -83 140 -94 162 -28 54 -61 163 -73 241 -9 57 -8 68 10 104 33 65 101 165
110 163 11 -3 54 56 47 64 -3 2 -13 -9 -22 -27 -9 -18 -19 -29 -22 -27 -9 10
38 68 49 60 8 -4 9 0 5 11 -18 45 49 -27 160 -173 l31 -42 44 58 c24 32 60 85
80 118 64 108 144 250 151 268 9 24 30 12 105 -60z m-1708 -15 c0 -14 232
-368 240 -368 7 1 82 107 114 162 44 75 48 76 98 16 120 -145 137 -183 138
-303 0 -50 -7 -118 -15 -150 -9 -33 -65 -161 -125 -285 -148 -307 -167 -370
-178 -613 l-7 -142 -89 149 c-107 179 -184 340 -226 467 -92 280 -149 573
-155 794 -2 90 -1 120 4 85 4 -30 8 -45 9 -32 1 13 7 20 12 17 6 -3 11 5 11
19 1 14 3 31 4 36 1 6 3 13 4 18 1 4 13 21 27 37 17 20 22 24 17 10 -6 -18 -5
-18 10 -6 9 7 15 17 12 21 -6 10 52 76 60 68 4 -4 -8 -21 -26 -39 -19 -18 -33
-36 -32 -39 1 -3 -7 -18 -18 -35 -19 -28 -20 -28 -14 -5 l6 25 -17 -23 c-10
-13 -19 -35 -20 -48 -2 -22 3 -18 34 22 20 26 53 63 72 83 34 35 41 63 19 86
-5 5 -9 14 -9 20 0 11 39 -35 40 -47z m-2126 -139 c29 -34 35 -79 11 -79 -27
0 -109 -47 -148 -85 -22 -22 -44 -35 -52 -31 -8 3 -15 0 -16 -7 0 -9 -2 -9 -5
0 -3 7 -11 10 -19 7 -7 -3 -16 -1 -20 5 -7 13 23 81 36 81 5 0 9 5 9 10 0 24
-41 -18 -65 -67 -28 -58 -39 -68 -29 -25 12 50 44 90 109 137 57 40 138 84
157 85 3 0 18 -14 32 -31z m6426 -68 c16 -16 36 -41 45 -55 16 -24 16 -28 2
-50 -15 -22 -73 -56 -96 -56 -12 0 -56 56 -56 73 0 7 -4 23 -9 37 -7 20 -4 28
25 52 42 35 55 35 89 -1z m147 -169 c23 -31 47 -57 52 -57 14 0 119 -119 174
-197 59 -83 99 -165 129 -263 14 -44 60 -167 102 -272 61 -155 76 -203 76
-245 0 -49 -17 -86 -204 -458 -184 -367 -254 -486 -273 -467 -3 4 60 141 142
304 81 164 163 334 182 378 20 44 48 99 64 123 16 24 36 56 44 72 17 33 20 86
5 95 -5 3 -10 -3 -10 -14 0 -26 -17 -36 -36 -20 -12 10 -13 9 -8 -5 5 -12 0
-16 -17 -16 -16 0 -33 13 -50 38 -40 57 -41 69 -14 112 14 22 25 46 25 55 0
18 17 20 23 3 8 -24 -4 37 -15 77 -8 28 -13 34 -16 21 -3 -13 -6 -15 -12 -7
-5 9 -16 7 -41 -8 -19 -12 -45 -20 -59 -20 l-25 2 25 4 c42 8 110 61 110 87 0
21 -2 21 -39 -14 -32 -30 -88 -56 -98 -46 -2 1 26 32 62 69 36 37 65 74 65 83
0 12 -8 8 -28 -13 -39 -43 -86 -64 -151 -69 l-56 -4 40 13 c22 7 51 19 65 26
32 17 100 82 100 96 0 14 -102 207 -107 202 -2 -2 4 -20 12 -40 17 -41 10 -71
-24 -101 -11 -11 -21 -16 -21 -12 0 4 -8 2 -19 -3 -10 -6 -21 -7 -25 -4 -3 3
4 11 17 18 15 8 24 8 29 1 5 -8 8 -7 8 1 0 18 -19 26 -35 13 -10 -9 -18 -3
-36 30 -12 22 -26 40 -31 40 -4 0 -8 4 -8 9 0 5 -12 30 -26 56 -19 34 -29 43
-35 33 -6 -9 -9 -9 -9 -1 0 7 13 22 30 34 16 12 32 29 35 38 4 11 -1 9 -17 -6
-33 -30 -84 -54 -102 -47 -13 5 -12 9 7 25 19 16 20 18 4 19 -14 0 -17 5 -12
20 6 18 3 20 -22 15 -15 -3 -22 -2 -15 1 21 10 102 86 102 96 0 5 -19 -6 -41
-26 -39 -33 -43 -34 -68 -22 -14 8 -35 24 -46 37 -12 14 -14 19 -5 15 8 -5 2
4 -15 18 -16 15 -45 34 -62 42 -18 8 -33 18 -33 22 0 4 15 6 33 4 47 -5 83 12
114 57 23 33 30 37 38 25 6 -8 29 -41 52 -72z m-3554 6 c3 -13 11 -61 17 -108
13 -103 43 -217 71 -271 11 -22 56 -95 101 -162 44 -67 94 -149 109 -182 39
-82 69 -206 68 -279 l-1 -61 -13 65 c-30 144 -79 251 -184 397 -112 158 -148
249 -187 482 -15 90 -13 141 5 141 5 0 11 -10 14 -22z m-2505 -2 c15 -8 38
-27 53 -43 54 -60 55 -58 -38 -61 -73 -2 -85 0 -79 13 6 17 -16 19 -49 5 -17
-7 -17 -9 -2 -9 10 -1 17 -9 17 -19 0 -13 -7 -18 -22 -17 -26 2 -66 -13 -87
-33 -7 -7 -16 -10 -19 -7 -4 3 -1 10 7 14 9 6 2 14 -24 30 -48 28 -57 27 -22
-3 l27 -24 -17 -33 c-10 -19 -21 -35 -25 -37 -5 -2 -8 -8 -8 -13 0 -15 22 -10
37 9 12 15 13 14 1 -8 -7 -14 -11 -31 -9 -38 1 -8 -7 -16 -17 -19 -11 -2 -24
-19 -30 -36 l-11 -32 4 35 c4 30 4 32 -5 12 -5 -13 -14 -21 -19 -18 -5 3 -7
-4 -3 -16 3 -13 1 -19 -5 -15 -13 8 -38 -37 -29 -52 5 -7 1 -8 -10 -4 -14 5
-16 3 -11 -11 5 -11 3 -15 -5 -10 -7 5 -9 0 -6 -14 4 -15 2 -19 -9 -15 -11 4
-13 -1 -8 -23 4 -22 3 -24 -4 -9 -7 18 -11 14 -32 -30 -29 -61 -28 -60 -34
-53 -3 3 1 18 10 34 8 16 15 34 15 39 0 6 9 21 20 35 11 14 20 29 20 35 0 5
-11 -7 -25 -27 -14 -20 -25 -40 -25 -43 0 -13 -34 -80 -43 -86 -6 -4 -7 -14
-4 -22 3 -8 -2 -22 -12 -31 -20 -18 -36 -21 -26 -6 10 16 -2 12 -53 -20 -54
-34 -66 -23 -33 31 12 19 21 44 21 56 0 22 15 39 23 26 2 -5 2 -2 0 5 -2 8 10
32 26 55 15 23 54 87 86 142 187 324 173 309 310 345 127 33 146 35 183 16z
m5175 -73 c29 -28 34 -52 17 -84 -9 -15 -22 -19 -65 -19 -62 0 -88 20 -99 72
-10 49 -7 57 22 72 23 12 31 12 62 0 19 -8 47 -27 63 -41z m1965 -62 c-18 -21
-85 -85 -148 -142 -137 -125 -222 -208 -274 -269 l-38 -45 23 40 c82 147 236
310 347 368 40 21 72 40 72 42 0 2 -33 -10 -72 -28 -64 -27 -89 -47 -201 -159
-74 -74 -120 -114 -110 -95 10 18 56 71 103 118 74 74 100 93 205 147 66 33
121 61 123 61 2 1 -11 -16 -30 -38z m-1825 -25 c26 -15 47 -29 47 -32 0 -3 -4
-3 -9 0 -5 3 -12 -6 -15 -19 -4 -14 -10 -23 -15 -20 -5 2 -12 -2 -15 -11 -3
-8 -2 -12 4 -9 14 9 12 -7 -4 -27 -16 -21 -30 -24 -23 -4 4 10 0 12 -14 9 -21
-6 -26 -23 -7 -23 6 0 9 -2 7 -5 -3 -2 -18 -1 -35 4 l-29 8 25 11 c34 15 63
41 85 77 16 27 14 25 -26 -11 -78 -73 -88 -74 -197 -15 -67 37 -78 51 -19 26
74 -31 122 -10 148 63 10 29 13 31 28 19 9 -7 37 -26 64 -41z m-5085 33 c37
-13 98 -97 82 -113 -6 -6 -18 -6 -34 2 -21 9 -34 7 -78 -12 -74 -33 -148 -48
-141 -29 4 11 -1 13 -23 8 -23 -5 -26 -4 -14 5 13 9 12 10 -5 7 -11 -2 -38 6
-60 17 -22 11 -43 19 -47 18 -3 -1 -11 5 -18 13 -24 29 -4 38 168 75 104 22
129 24 170 9z m3223 -76 c-27 -171 -118 -480 -196 -665 -59 -139 -297 -598
-311 -598 -7 0 11 35 70 139 138 244 256 516 330 761 28 95 106 422 106 446 0
4 3 4 6 1 4 -4 1 -41 -5 -84z m-3547 -30 c4 -5 11 -8 14 -8 15 0 72 -28 72
-35 0 -4 -8 -10 -19 -13 -11 -3 -39 -45 -74 -113 -115 -226 -131 -252 -144
-247 -7 3 -13 0 -13 -7 0 -6 5 -8 10 -5 13 8 13 2 -1 -29 -8 -16 -17 -23 -28
-19 -12 4 -13 2 -3 -4 7 -6 10 -18 6 -29 -7 -21 49 69 81 129 11 20 23 37 27
37 4 0 -5 -26 -22 -57 -38 -75 -72 -164 -65 -171 10 -11 34 23 122 178 136
237 171 288 207 299 99 32 220 61 250 61 22 0 45 -9 64 -25 41 -34 154 -183
144 -189 -5 -3 -36 22 -70 54 -34 33 -63 60 -64 60 -2 0 -45 -16 -96 -35 -52
-19 -117 -37 -145 -41 -62 -7 -73 -19 -76 -84 0 -14 -19 -49 -41 -78 -21 -29
-42 -69 -46 -88 -3 -18 -11 -34 -17 -34 -6 0 -8 -3 -4 -6 5 -6 2 -12 -28 -47
-6 -7 -19 -23 -28 -37 -14 -20 -17 -21 -17 -6 0 15 -4 14 -31 -8 -17 -14 -35
-26 -39 -26 -5 0 -25 -14 -45 -32 -36 -31 -36 -31 -42 -9 -5 19 -11 22 -38 19
-22 -2 -36 1 -42 12 -12 20 -5 50 12 50 13 0 29 29 20 38 -2 3 -7 -3 -11 -12
-11 -28 -23 -18 -14 12 4 15 11 41 14 57 l6 30 -16 -30 c-32 -58 -41 -64 -87
-53 -22 5 -47 14 -53 19 -9 7 -16 5 -23 -8 -6 -11 -11 -13 -11 -5 0 7 14 27
30 45 50 52 150 198 235 344 44 75 87 139 94 141 8 3 11 0 7 -7 -4 -6 -2 -11
3 -11 6 0 11 7 11 15 0 16 12 20 24 8z m5558 -38 c127 -102 281 -204 263 -175
-22 35 111 -46 176 -107 63 -60 126 -141 134 -174 5 -21 -1 -34 -37 -72 -36
-39 -47 -45 -70 -41 -29 7 -39 24 -14 24 8 0 18 4 21 10 7 11 -23 2 -41 -12
-15 -11 -74 -7 -81 6 -4 5 4 7 17 3 31 -8 82 23 99 59 12 26 12 27 -11 12 -31
-20 -63 -27 -79 -17 -9 5 -6 11 14 20 26 12 87 91 87 113 0 6 -18 -9 -39 -33
-25 -29 -43 -41 -51 -36 -9 5 -11 4 -6 -3 4 -7 3 -12 -3 -12 -15 0 -23 18 -11
25 6 3 19 24 31 46 21 42 19 71 -9 99 -14 14 -15 13 -8 -5 13 -32 9 -56 -15
-81 -15 -16 -29 -22 -41 -18 -10 3 -30 7 -45 10 -15 3 -30 7 -35 10 -10 7 -11
41 0 46 4 2 21 21 36 43 21 30 14 25 -26 -19 -46 -50 -57 -57 -64 -43 -5 9
-18 18 -29 19 -29 5 -59 28 -141 108 -40 38 -78 70 -84 70 -10 0 -9 4 0 15 9
10 9 15 1 15 -6 0 -11 12 -11 26 0 14 -4 23 -10 19 -14 -9 -12 1 7 38 9 18 16
35 15 40 -4 16 18 5 60 -28z m-573 -37 c20 -17 44 -42 55 -55 18 -24 18 -25
-3 -47 -12 -12 -29 -22 -39 -21 -29 2 -103 45 -97 55 4 6 -1 13 -9 16 -23 9
-19 49 7 67 32 23 45 21 86 -15z m-5720 -149 c-12 -52 -30 -111 -40 -131 -31
-60 -25 -88 41 -188 85 -129 243 -430 300 -570 30 -74 35 -98 37 -185 l2 -100
-28 110 c-16 61 -35 126 -44 146 -34 77 -138 283 -236 467 -56 106 -105 208
-108 227 -4 25 7 73 42 180 27 80 50 143 52 141 2 -2 -6 -46 -18 -97z m5825
43 c9 -11 57 -43 106 -72 50 -29 89 -55 87 -57 -6 -6 -57 22 -57 32 0 6 -5 3
-10 -5 -8 -13 -10 -12 -10 4 0 19 0 19 -21 0 -22 -19 -22 -19 -10 4 18 35 1
26 -52 -25 -28 -29 -51 -44 -55 -38 -4 6 -19 18 -34 28 -16 10 -28 24 -28 32
0 17 52 115 61 115 3 0 13 -8 23 -18z m-6014 -28 c0 -3 -9 -62 -20 -132 -11
-70 -33 -233 -49 -362 -17 -130 -32 -242 -35 -250 -5 -15 -19 -158 -51 -525
-20 -233 -62 -654 -76 -771 -8 -66 -15 -91 -25 -91 -18 0 -18 15 1 280 42 599
83 1008 155 1549 30 221 39 268 62 295 10 13 38 18 38 7z m6303 -252 c-3 -12
-9 -22 -14 -22 -5 0 -9 -4 -9 -10 0 -18 21 -10 28 11 5 11 11 20 15 20 22 -3
27 0 21 10 -4 7 -1 10 7 7 8 -3 14 -17 14 -31 -1 -23 2 -26 20 -20 11 3 34 7
51 7 37 2 36 -4 -15 -84 -22 -35 -36 -49 -39 -40 -5 15 -72 83 -72 74 0 -3
-13 3 -30 13 -28 16 -39 33 -22 33 4 0 15 14 25 31 19 35 29 35 20 1z m-430
-84 c34 -23 73 -50 87 -61 l25 -19 -54 7 c-48 6 -56 4 -80 -19 l-26 -25 -20
29 c-11 16 -24 29 -30 28 -5 -1 -18 2 -27 6 -16 7 -13 13 20 52 20 24 38 43
40 44 2 0 31 -19 65 -42z m1373 -173 c-3 -8 -1 -15 5 -15 5 0 12 -8 16 -17 3
-10 24 -40 45 -68 24 -30 37 -56 35 -67 -3 -10 -1 -18 4 -18 12 0 11 -51 0
-69 -10 -16 -51 -26 -51 -12 0 4 -19 11 -41 14 -47 6 -138 64 -165 105 -16 25
-16 26 5 41 13 9 43 35 68 58 25 24 50 40 55 37 4 -3 8 -2 7 3 -3 16 1 23 12
23 6 0 9 -7 5 -15z m-6200 -49 c-4 -16 0 -30 9 -40 22 -21 184 -292 213 -355
13 -29 21 -56 16 -60 -5 -3 -17 -22 -28 -41 -18 -34 -43 -60 -56 -60 -4 0 -5
35 -2 79 2 44 0 93 -7 112 -6 19 -45 86 -86 149 -42 63 -78 126 -82 138 -3 13
0 41 6 63 13 42 27 55 17 15z m5891 -173 c10 -12 12 -13 8 -3 -4 10 -2 9 8 -2
16 -21 32 -24 21 -5 -4 6 -4 9 0 5 4 -3 7 -9 6 -13 -1 -8 39 -40 63 -48 11 -4
15 -12 11 -19 -6 -10 -3 -9 9 0 14 12 17 10 23 -13 8 -33 -15 -60 -64 -72 -34
-9 -42 -6 -94 29 -31 21 -60 42 -63 48 -3 5 -12 10 -18 10 -7 0 -3 -7 7 -15
30 -22 6 -18 -34 6 l-34 21 28 15 c15 8 35 12 44 8 9 -3 13 -3 9 2 -6 6 39 61
52 62 2 1 10 -7 18 -16z m-432 -87 c46 -44 134 -106 152 -106 6 0 18 -6 25
-13 7 -6 37 -23 66 -37 61 -28 83 -55 52 -63 -11 -3 -20 -10 -20 -16 0 -8 6
-9 19 -1 26 13 43 13 65 -3 24 -18 11 -43 -31 -60 -32 -12 -39 -12 -71 5 -20
10 -42 18 -50 18 -7 0 -10 4 -7 10 3 5 0 7 -9 4 -8 -3 -31 5 -53 19 -21 13
-48 27 -60 31 -27 9 -130 107 -171 165 -30 41 -43 91 -23 91 4 0 6 -11 3 -25
-2 -15 0 -25 7 -25 6 0 11 5 11 10 0 6 7 10 15 10 19 0 19 10 -1 39 l-17 23
29 -18 c16 -11 47 -36 69 -58z m-7750 -388 c44 -10 88 -21 99 -25 12 -3 16 -1
12 6 -4 5 19 -1 51 -15 100 -43 148 -69 146 -80 -1 -6 4 -11 11 -11 7 0 53
-20 102 -45 149 -75 210 -119 88 -63 -95 44 -242 86 -230 66 3 -4 54 -27 113
-50 115 -44 173 -74 173 -91 0 -17 -14 -13 -163 47 -150 59 -190 80 -182 93 4
6 -62 35 -105 45 -3 1 -18 7 -33 13 -16 7 -30 12 -32 12 -2 0 -48 21 -102 47
-54 25 -100 47 -103 48 -24 8 -40 19 -40 26 0 12 98 1 195 -23z m8619 -203
c-1 -46 -7 -71 -28 -106 -28 -49 -68 -94 -99 -110 -17 -9 -18 -7 -12 28 4 21
25 75 48 121 27 56 42 101 45 138 l5 55 21 -33 c16 -25 21 -48 20 -93z m-6832
75 c146 -111 469 -228 644 -233 52 -1 73 -6 70 -14 -3 -6 -8 -28 -12 -48 -4
-21 -10 -32 -14 -25 -4 6 -7 -8 -6 -32 0 -46 -34 -171 -41 -150 -3 6 -9 12
-14 12 -6 0 -7 -5 -4 -10 12 -20 -49 -32 -132 -27 -89 6 -222 46 -321 96 -74
37 -201 122 -229 153 l-23 24 24 79 c13 44 27 93 30 108 l7 29 34 -26 c18 -14
37 -26 41 -26 4 0 -9 12 -29 28 -33 24 -96 102 -83 102 3 0 29 -18 58 -40z
m6986 -202 c5 -89 -24 -381 -54 -548 -13 -74 -13 -72 -8 85 3 88 7 178 10 200
l5 40 -22 -40 c-22 -40 -109 -152 -109 -141 0 4 20 37 45 74 66 100 117 240
118 327 1 38 -2 84 -6 100 -6 25 -5 27 4 11 7 -10 14 -59 17 -108z m-1858 -69
c0 -136 -2 -150 -17 -147 -14 2 -16 14 -14 66 1 34 -1 87 -4 117 l-7 54 -209
-6 c-180 -5 -209 -4 -209 9 0 12 35 17 188 27 152 10 251 21 270 30 1 0 2 -67
2 -150z m1716 -104 c-10 -23 -20 -34 -27 -29 -8 4 -9 3 -5 -5 12 -18 -36 -91
-98 -149 -74 -70 -167 -113 -257 -120 -38 -2 -69 -2 -69 2 0 8 41 83 67 122
14 22 14 27 2 36 -11 8 -11 9 3 4 10 -3 19 -2 22 2 2 4 -77 8 -177 7 l-182 0
-75 33 c-41 18 -79 38 -85 44 -7 8 -4 9 10 3 93 -36 167 -48 290 -49 148 -1
209 12 330 69 89 43 199 141 236 210 l24 45 3 -94 c2 -68 -2 -105 -12 -131z
m-1782 76 c3 -21 3 -53 0 -70 -6 -31 -7 -31 -74 -31 -51 0 -71 4 -81 17 -11
13 -11 17 -1 20 6 3 12 17 13 31 0 24 1 25 9 7 6 -14 7 -6 3 23 l-6 42 65 0
65 0 7 -39z m270 -82 c37 -58 127 -142 193 -181 l31 -19 -25 -44 c-13 -25 -29
-48 -35 -51 -7 -5 -8 -2 -3 7 4 8 -4 1 -19 -15 -14 -16 -23 -33 -20 -37 3 -5
0 -9 -5 -9 -6 0 -11 -7 -11 -15 0 -8 -5 -15 -11 -15 -5 0 -8 -4 -5 -9 3 -4 -7
-19 -22 -32 l-27 -24 21 25 c12 14 20 33 19 42 -2 10 17 48 41 84 l44 66 -89
86 c-77 76 -130 148 -137 190 -5 30 24 6 60 -49z m-484 -24 c63 -7 146 -17
183 -20 l68 -7 -1 -189 c-1 -170 -3 -189 -18 -188 -16 0 -143 24 -187 34 -11
3 -51 10 -90 15 -135 18 -216 33 -221 42 -3 5 7 6 23 2 15 -4 37 -7 48 -6 17
1 245 -26 357 -43 68 -10 4 7 -90 25 l-97 18 78 1 c54 1 76 -2 72 -10 -5 -7 3
-9 20 -7 39 4 54 54 52 168 -1 54 2 90 8 90 6 0 3 5 -5 10 -9 4 -87 15 -175
24 -88 9 -185 19 -215 22 l-55 6 -13 -93 c-7 -52 -12 -111 -12 -131 0 -32 3
-37 28 -41 24 -4 23 -4 -7 -6 l-34 -1 7 142 c4 85 11 145 18 149 7 4 4 9 -8
12 -30 9 141 -2 266 -18z m172 -81 c12 -7 10 -123 -3 -167 l-10 -38 -65 2
c-35 1 -64 6 -64 11 0 4 5 8 10 8 12 0 13 52 1 102 -5 20 -7 38 -5 40 1 2 32
1 69 -2 42 -4 64 -2 62 5 -4 10 -8 11 -49 14 -17 1 -19 4 -10 10 10 6 8 10 -8
14 -16 4 -20 2 -16 -9 4 -10 -2 -14 -18 -14 -24 0 -41 22 -28 35 7 7 120 -2
134 -11z m-303 -20 c24 -5 31 -12 31 -31 0 -13 -8 -35 -17 -50 -16 -25 -16
-26 10 -45 31 -23 37 -44 8 -28 -11 5 -28 10 -37 10 -10 0 -31 12 -46 27 -15
15 -28 21 -28 15 0 -7 -4 -12 -10 -12 -14 0 -12 94 2 108 13 13 40 15 87 6z
m721 -95 c14 -7 29 -12 34 -11 15 5 -2 -26 -46 -84 -31 -41 -43 -52 -48 -40
-3 8 -26 29 -53 45 -26 17 -47 33 -47 35 0 3 11 21 24 41 14 20 28 49 31 66
l7 31 37 -35 c20 -19 47 -41 61 -48z m-5845 -204 c121 -14 267 -28 325 -33
l105 -7 8 -65 c4 -36 25 -180 47 -321 22 -141 40 -262 40 -269 0 -42 14 27 59
294 28 164 51 309 51 323 l0 26 113 -7 c213 -13 472 -26 525 -26 55 0 68 -14
36 -41 -9 -7 -29 -36 -45 -64 l-29 -50 0 -732 c0 -403 -3 -733 -7 -733 -14 -1
-286 -38 -366 -50 -43 -7 -80 -10 -84 -7 -3 4 8 21 26 39 17 18 36 48 41 68 9
36 19 792 10 783 -8 -7 -86 -460 -131 -750 -17 -116 -27 -154 -38 -157 -9 -3
-61 -12 -115 -22 -55 -9 -119 -22 -142 -29 l-43 -13 -40 167 c-72 297 -161
725 -161 770 0 11 -3 22 -7 24 -12 8 -5 -832 7 -875 6 -20 23 -50 40 -68 32
-34 34 -33 -60 -50 -72 -12 -391 -93 -435 -110 -15 -6 -30 -9 -32 -6 -2 2 14
31 36 65 22 34 44 84 50 112 7 33 11 305 11 807 0 650 -2 766 -15 817 -17 64
-38 103 -91 166 -60 72 -82 70 311 24z m6565 -19 c0 -8 -16 -27 -35 -41 -19
-15 -47 -52 -62 -83 l-28 -57 0 -685 0 -684 42 -12 c73 -21 188 -38 215 -31
28 7 97 75 149 145 17 23 34 42 39 42 4 0 1 -26 -6 -57 -34 -146 -26 -394 17
-508 12 -31 19 -58 17 -61 -3 -2 -33 8 -68 22 -137 55 -496 148 -734 189 -76
13 -140 26 -142 28 -3 3 7 18 21 35 63 74 60 39 63 815 2 468 -1 720 -8 746
-5 21 -28 61 -50 89 -50 62 -51 82 -7 83 17 0 136 8 262 18 303 24 315 24 315
7z m-3570 -187 l0 -182 -23 34 c-27 41 -48 44 -214 34 l-113 -7 0 -190 0 -191
102 7 c56 3 114 13 129 20 l28 14 3 -164 3 -163 -23 29 -23 30 -110 0 -110 0
3 -279 3 -279 33 -41 33 -41 -74 0 c-109 0 -634 -39 -754 -56 -49 -7 -51 -3
-22 37 14 21 19 41 17 71 l-3 43 -80 -3 c-44 -1 -95 -5 -114 -8 -33 -5 -33 -6
-29 -49 4 -34 13 -50 37 -71 18 -14 29 -29 26 -33 -4 -3 -82 -14 -173 -23 -92
-10 -195 -21 -230 -24 l-62 -7 24 54 c14 30 32 99 40 154 116 741 165 1092
166 1174 0 69 -17 126 -47 154 -12 12 -23 29 -23 38 0 15 36 17 334 24 184 4
339 4 345 1 6 -4 -2 -29 -20 -62 -50 -96 -49 -106 77 -844 78 -456 92 -520
123 -559 l19 -25 8 70 c4 38 8 346 8 684 1 682 5 634 -65 715 -22 25 -27 36
-17 39 7 3 105 10 218 16 449 24 532 29 538 34 3 3 7 6 9 6 2 0 3 -82 3 -181z
m795 159 c-4 -13 -11 -99 -14 -193 -4 -107 -9 -162 -14 -147 -5 12 -20 36 -34
52 l-25 30 -144 0 -144 0 0 -193 0 -192 109 7 c60 3 119 11 130 17 20 11 20 8
23 -159 3 -175 2 -179 -32 -121 -6 11 -37 16 -117 19 l-110 4 -6 -139 c-7
-157 0 -362 14 -409 5 -18 19 -40 29 -49 11 -10 20 -22 20 -27 0 -4 -103 -8
-229 -8 l-230 0 30 57 30 56 -3 631 -3 631 -26 50 c-15 28 -30 60 -33 72 l-7
23 388 3 c213 1 392 3 397 5 4 1 5 -8 1 -20z m388 -5 c121 -7 125 -11 77 -71
-61 -76 -60 -67 -60 -721 0 -360 4 -610 10 -631 5 -20 21 -51 35 -70 14 -19
22 -37 18 -40 -5 -4 -48 -3 -98 1 -49 4 -149 8 -221 8 -72 1 -133 4 -136 7 -4
3 4 21 18 41 13 19 27 51 31 72 5 20 8 308 8 641 l0 605 -27 59 c-16 32 -28
69 -28 82 l0 24 133 0 c74 0 182 -3 240 -7z m540 -13 c116 -17 202 -72 243
-157 21 -43 28 -73 32 -149 l5 -94 -87 0 c-53 0 -100 -6 -121 -14 -34 -15 -35
-15 -41 12 -23 105 -84 143 -139 87 -21 -20 -25 -34 -25 -81 0 -81 29 -124
151 -224 185 -154 251 -242 284 -382 29 -125 8 -295 -50 -393 -31 -54 -110
-126 -172 -156 -42 -21 -62 -24 -163 -24 -105 0 -120 3 -175 28 -130 61 -195
175 -195 343 0 78 2 85 18 78 30 -13 168 -17 191 -5 19 11 21 9 21 -15 0 -15
10 -48 21 -72 40 -81 130 -91 181 -19 18 25 23 45 23 92 -1 95 -39 152 -178
266 -98 81 -185 167 -211 207 -50 81 -71 192 -56 308 14 115 43 183 106 253
61 66 113 96 194 110 74 12 67 12 143 1z m886 -21 c133 -21 233 -98 292 -223
54 -116 59 -160 59 -617 0 -379 -2 -423 -19 -492 -57 -220 -195 -337 -401
-337 -213 0 -369 131 -427 357 -16 59 -18 120 -18 483 0 362 2 424 17 483 67
260 249 387 497 346z m-2652 -1942 c28 -14 67 -42 87 -61 30 -30 36 -42 35
-73 -2 -34 -2 -34 -6 -8 -7 50 -13 62 -23 45 -5 -8 -6 -18 -3 -24 11 -18 20
-86 12 -86 -5 0 -9 12 -9 26 0 14 -5 34 -10 45 -7 13 -7 25 0 38 6 12 6 22 1
26 -5 3 -11 -2 -13 -11 -3 -15 -4 -15 -18 1 -9 11 -10 16 -2 11 6 -4 12 -2 12
3 0 6 -7 11 -16 11 -9 0 -12 5 -8 12 4 7 3 8 -5 4 -6 -4 -17 -3 -24 2 -31 24
-147 45 -214 38 -37 -4 -76 -8 -85 -9 -9 -1 -15 -3 -13 -6 6 -6 -38 -37 -47
-33 -5 1 -7 -1 -6 -5 1 -5 -6 -20 -16 -36 -57 -85 -9 -232 89 -272 72 -31 142
-12 193 52 33 42 62 58 125 67 25 3 37 1 38 -7 0 -7 5 -2 11 11 16 32 26 27
38 -18 15 -55 53 -96 121 -130 56 -29 81 -50 60 -50 -6 0 -11 5 -11 10 0 6 -9
10 -20 10 -50 0 -159 77 -144 101 3 5 2 8 -3 7 -4 -1 -19 5 -33 14 -19 12 -37
14 -78 9 -30 -4 -57 -13 -61 -20 -5 -7 -12 -11 -17 -9 -5 1 -13 -12 -19 -30
-8 -29 -18 -36 -52 -35 -7 1 -10 -3 -8 -7 10 -17 -86 -23 -128 -9 -56 19 -91
50 -121 111 -43 87 -28 199 34 253 13 11 20 14 15 6 -5 -9 -3 -12 6 -9 8 3 14
10 14 15 0 36 64 54 176 49 78 -3 105 -9 146 -29z m940 17 c26 -9 61 -28 76
-42 29 -27 59 -75 56 -89 -1 -4 1 -16 6 -26 12 -29 0 -110 -24 -160 -46 -94
-176 -135 -266 -84 -34 20 -40 27 -37 52 3 26 2 27 -15 15 -13 -10 -15 -11 -6
-1 6 7 9 20 6 27 -10 26 7 14 22 -16 32 -62 116 -87 188 -56 72 31 133 131
120 199 -9 49 -40 103 -70 125 -31 22 -139 56 -152 48 -5 -3 -38 -10 -75 -15
-37 -5 -78 -18 -94 -30 -23 -16 -32 -18 -42 -8 -10 9 -11 9 -6 0 9 -17 -24
-65 -40 -59 -16 6 -24 -15 -24 -66 0 -59 -9 -42 -11 20 -2 46 2 57 27 83 44
47 116 78 166 72 37 -4 40 -3 29 11 -12 14 -6 16 52 16 37 0 88 -7 114 -16z"/>
<path d="M7855 7561 c-60 -32 -127 -64 -147 -72 -21 -7 -38 -16 -38 -19 0 -4
16 -12 37 -18 34 -10 44 -7 170 50 133 61 151 76 121 106 -18 18 -25 16 -143
-47z"/>
<path d="M2651 7956 c-28 -28 -30 -34 -17 -45 8 -7 19 -10 24 -7 5 3 20 -3 33
-13 13 -10 51 -33 84 -51 33 -19 91 -54 128 -78 124 -79 81 -36 -71 72 -82 58
-158 106 -168 106 -17 0 -17 1 -2 17 16 15 21 13 75 -28 84 -63 293 -229 293
-232 0 -3 -278 -2 -485 2 -88 2 -160 -1 -159 -6 0 -13 169 -94 275 -133 80
-29 94 -37 82 -48 -7 -7 -16 -25 -19 -39 -14 -55 43 -86 69 -37 14 28 14 28
26 6 14 -26 31 -29 31 -6 0 17 13 15 98 -18 35 -14 56 -29 65 -47 13 -28 55
-41 68 -20 5 8 10 -2 14 -27 9 -54 18 -69 46 -69 15 0 29 10 39 28 14 25 13
30 -8 68 l-24 41 179 -7 c259 -10 262 -7 67 94 -184 96 -269 153 -290 194 -21
39 -17 41 183 113 120 43 163 63 161 74 -6 28 -42 21 -168 -31 -196 -80 -214
-87 -238 -85 -23 2 -129 74 -252 171 -100 79 -101 80 -139 41z"/>
<path d="M4155 6283 c2 -80 6 -97 48 -193 44 -99 59 -159 37 -145 -6 3 -31 41
-56 83 -43 73 -45 75 -39 37 13 -82 69 -224 145 -372 83 -163 260 -466 267
-459 3 2 -1 14 -7 26 -6 12 -9 24 -6 28 3 3 6 0 6 -6 0 -7 5 -12 10 -12 6 0
10 6 10 13 0 6 14 41 30 76 24 50 28 66 18 73 -7 4 -19 6 -25 3 -7 -2 -12 -1
-11 3 4 12 -76 121 -89 122 -7 0 -13 5 -13 12 0 6 -21 42 -46 79 -43 62 -46
72 -41 112 8 54 38 128 80 190 27 41 36 47 57 42 16 -4 0 11 -40 39 -151 105
-175 123 -217 170 -24 27 -58 76 -76 108 -18 32 -35 58 -38 58 -4 0 -5 -39 -4
-87z"/>
<path d="M3591 1890 c-1 -8 -17 -136 -36 -285 -19 -148 -35 -276 -35 -282 0
-9 21 -13 70 -13 49 0 70 4 70 13 0 43 -66 593 -69 567z"/>
<path d="M7308 2062 c-15 -9 -36 -35 -45 -57 -16 -36 -18 -76 -16 -457 2 -265
7 -427 14 -445 33 -89 123 -100 166 -20 16 29 18 71 18 467 0 389 -2 438 -17
466 -31 56 -76 73 -120 46z"/>
</g>
</svg>
